 <svg  version="1.0" xmlns="http://www.w3.org/2000/svg"  width="648.000000pt" height="873.000000pt" viewBox="0 0 648.000000 873.000000"  preserveAspectRatio="xMidYMid meet">  <g transform="translate(0.000000,873.000000) scale(0.100000,-0.100000)" fill="#ff0000" stroke="none"> <path d="M3510 8709 c0 -22 -36 -58 -57 -59 -7 0 -13 9 -13 20 0 11 -7 20 -15 20 -19 0 -33 -32 -17 -38 13 -4 6 -48 -9 -68 -6 -7 4 -15 30 -22 54 -17 58 -16 65 19 5 27 9 30 31 25 14 -4 25 -2 25 4 0 5 -4 10 -10 10 -5 0 -10 10 -10 23 0 18 11 29 45 46 25 12 45 27 45 32 0 5 -25 9 -55 9 -49 0 -55 -2 -55 -21z"/> <path d="M4050 8720 c0 -6 5 -19 12 -29 16 -26 3 -51 -27 -51 -14 0 -25 4 -25 9 0 9 -53 31 -76 31 -9 0 -14 -11 -14 -30 0 -21 5 -30 16 -30 9 0 32 -9 50 -21 26 -16 34 -27 34 -50 0 -34 14 -37 77 -13 33 13 48 14 74 5 23 -8 36 -8 45 0 9 8 15 5 24 -10 7 -14 21 -21 38 -21 42 0 51 -14 39 -60 -13 -47 -4 -60 22 -36 18 16 21 16 50 1 18 -9 29 -20 26 -25 -7 -11 41 -90 55 -90 6 0 10 16 10 35 0 32 2 35 29 35 17 0 33 5 37 11 3 6 17 8 30 5 36 -9 62 9 66 46 2 17 8 33 15 35 8 3 10 -8 6 -35 -7 -52 12 -64 43 -26 26 32 31 76 10 93 -7 6 -64 13 -130 15 -69 2 -122 8 -129 15 -6 6 -21 11 -33 11 -12 0 -24 7 -28 15 -3 8 -10 15 -16 15 -5 0 -10 -7 -10 -15 0 -30 -28 -14 -48 28 -23 48 -73 80 -117 75 -27 -3 -28 -4 -12 -20 18 -18 23 -48 7 -48 -5 0 -14 9 -20 20 -6 11 -20 20 -31 20 -26 0 -79 55 -79 81 0 10 -4 19 -10 19 -5 0 -10 -5 -10 -10z"/> <path d="M2900 8680 c0 -5 3 -11 8 -11 4 -1 21 -3 37 -5 l30 -3 -25 14 c-30 17 -50 19 -50 5z"/> <path d="M3844 8647 c-17 -18 -34 -44 -38 -59 -6 -24 -11 -28 -44 -28 -20 0 -52 9 -70 20 -25 15 -37 18 -52 10 -23 -12 -17 -37 11 -45 10 -4 24 -15 29 -26 13 -23 58 -26 66 -4 12 30 42 37 99 24 43 -10 57 -9 69 1 11 9 13 17 6 30 -6 10 -7 25 -5 33 3 7 -1 20 -10 27 -8 7 -15 21 -15 31 0 26 -10 23 -46 -14z"/> <path d="M2741 8651 c-27 -21 -21 -42 10 -34 17 5 19 2 14 -19 -5 -21 -1 -30 24 -47 32 -23 41 -58 17 -67 -16 -6 -103 21 -125 39 -11 9 -15 9 -18 0 -6 -17 -28 -16 -42 1 -7 8 -44 23 -83 33 -54 14 -73 23 -81 41 -12 25 -40 35 -83 30 -23 -2 -30 -9 -34 -33 -4 -23 -11 -31 -30 -33 -14 -2 -29 -8 -34 -13 -6 -5 -22 -9 -37 -9 -15 0 -32 -6 -38 -14 -6 -7 -24 -16 -39 -19 -16 -3 -57 -34 -94 -70 -49 -48 -76 -66 -104 -72 -49 -9 -74 -22 -74 -39 0 -7 -16 -24 -35 -37 -19 -13 -35 -27 -35 -31 0 -4 -19 -17 -42 -29 -24 -12 -50 -27 -58 -34 -8 -7 -36 -20 -62 -30 -27 -10 -48 -21 -48 -25 0 -13 -64 -47 -101 -54 -20 -3 -46 -17 -59 -31 -13 -14 -31 -25 -40 -25 -29 0 -63 -38 -69 -78 -6 -35 -8 -37 -51 -42 -39 -4 -49 -11 -89 -60 -24 -30 -56 -60 -71 -66 -30 -13 -90 -84 -90 -106 0 -8 -9 -23 -20 -33 -11 -10 -25 -34 -31 -54 -8 -26 -28 -48 -74 -83 -34 -26 -75 -67 -91 -92 -16 -24 -38 -50 -50 -56 -12 -7 -31 -36 -43 -66 -13 -30 -38 -71 -57 -91 -19 -21 -56 -80 -82 -131 -83 -164 -97 -188 -119 -217 -13 -15 -23 -32 -23 -37 0 -6 -11 -23 -25 -40 -13 -16 -29 -47 -35 -69 -6 -22 -22 -50 -36 -62 -37 -32 -64 -101 -64 -163 0 -30 -4 -62 -9 -72 -6 -9 -21 -42 -35 -72 -15 -30 -36 -70 -48 -89 -11 -18 -25 -50 -29 -70 -4 -20 -17 -72 -29 -116 -14 -56 -20 -107 -20 -170 1 -49 1 -102 0 -116 0 -15 8 -45 20 -67 18 -35 21 -57 20 -159 -1 -148 7 -305 20 -363 5 -25 12 -70 16 -100 3 -30 12 -62 19 -70 7 -8 22 -44 34 -80 31 -92 79 -189 102 -203 10 -6 19 -17 19 -23 0 -6 8 -22 18 -35 42 -55 53 -110 50 -252 -3 -127 -2 -137 20 -166 30 -41 28 -51 -13 -84 -19 -15 -35 -35 -35 -43 0 -8 -7 -28 -15 -44 -13 -25 -13 -33 1 -72 8 -24 19 -88 24 -143 12 -135 27 -242 36 -256 5 -8 12 -4 24 11 13 17 16 39 14 95 -4 87 9 107 51 79 18 -12 24 -22 19 -33 -4 -9 -9 -33 -12 -54 -2 -20 -8 -40 -13 -43 -13 -8 -11 -41 3 -64 16 -26 7 -33 -26 -20 -15 5 -32 8 -37 4 -13 -7 -11 -92 2 -134 6 -19 15 -60 19 -90 15 -106 40 -224 50 -234 6 -6 10 -23 10 -40 0 -16 6 -37 14 -45 15 -17 33 -122 46 -268 5 -50 13 -100 19 -111 6 -12 11 -34 11 -51 0 -17 6 -48 14 -68 7 -21 21 -65 30 -98 10 -33 24 -80 32 -105 8 -25 14 -65 14 -90 0 -25 5 -63 11 -85 6 -22 14 -60 18 -85 4 -25 10 -50 14 -57 4 -6 11 -31 16 -55 5 -24 19 -68 31 -98 12 -30 24 -64 27 -75 5 -20 9 -29 54 -129 12 -26 45 -87 73 -135 28 -47 62 -107 74 -133 13 -26 27 -50 33 -53 18 -12 9 -66 -18 -108 -16 -23 -30 -46 -33 -52 -3 -5 -21 -35 -41 -65 -20 -30 -47 -79 -59 -108 -20 -47 -22 -59 -12 -105 16 -77 24 -151 26 -237 1 -60 5 -83 19 -98 11 -12 20 -40 22 -69 2 -27 10 -65 18 -84 7 -19 20 -59 27 -89 7 -30 16 -60 21 -65 19 -24 39 -104 39 -156 0 -31 3 -71 6 -88 6 -27 10 -31 40 -31 l33 0 -6 63 c-8 89 3 107 68 107 43 0 50 2 45 18 -3 9 -8 31 -12 47 -4 17 -12 37 -19 45 -7 8 -16 25 -19 38 -4 12 -12 22 -17 22 -5 0 -9 17 -9 38 0 20 -5 44 -10 52 -7 11 -10 7 -10 -18 0 -20 -6 -35 -15 -38 -8 -4 -15 -12 -15 -20 0 -14 3 -22 33 -82 21 -42 1 -44 -36 -2 -30 33 -44 75 -28 84 21 13 12 46 -15 56 -17 7 -24 15 -20 25 3 8 -1 27 -9 42 -20 37 -20 127 0 143 8 7 15 18 15 25 0 13 21 25 45 25 7 0 15 -13 18 -28 4 -22 11 -29 29 -28 25 1 41 -34 59 -131 6 -29 16 -65 24 -80 8 -16 15 -34 15 -42 0 -12 118 -131 131 -131 3 0 11 -11 17 -25 6 -14 18 -25 25 -25 8 0 19 -11 25 -25 12 -26 36 -33 47 -15 9 15 -14 40 -36 40 -13 0 -19 7 -19 23 0 31 -34 84 -91 140 -27 26 -49 54 -49 61 0 8 -6 19 -14 25 -8 7 -17 27 -20 45 -6 32 -45 137 -67 182 -6 11 -10 52 -9 90 1 44 -6 102 -21 162 -21 85 -22 96 -9 140 22 71 18 148 -8 172 -19 18 -21 29 -18 111 3 73 1 89 -10 85 -9 -3 -14 2 -14 13 0 10 -7 24 -15 31 -8 7 -15 27 -15 46 0 26 -7 39 -35 60 -19 14 -35 34 -35 43 0 9 -7 25 -15 35 -8 11 -15 30 -15 42 0 36 -46 153 -69 178 -15 16 -21 35 -21 69 0 26 -4 47 -9 47 -13 0 -41 87 -41 126 0 18 -5 36 -10 39 -6 3 -10 39 -10 79 0 53 -4 77 -15 86 -8 7 -15 24 -15 39 0 14 -9 46 -20 70 -11 24 -20 57 -20 73 0 30 -14 94 -30 133 -22 55 -28 91 -51 330 -16 159 -21 491 -9 545 9 40 13 118 9 190 -1 14 1 63 4 110 l6 85 88 7 c157 12 184 -12 282 -242 29 -69 60 -139 67 -157 8 -17 14 -34 14 -37 0 -3 14 -26 32 -51 39 -56 77 -79 176 -107 68 -20 105 -23 327 -26 240 -4 609 13 630 28 6 4 35 10 65 14 30 4 69 11 85 16 17 5 49 14 72 20 31 8 47 19 57 38 8 16 33 47 56 70 44 44 75 95 85 142 3 16 13 34 21 41 8 6 14 20 14 30 0 10 14 41 30 69 17 28 30 55 30 60 0 4 7 21 15 37 8 15 21 53 29 83 21 76 46 90 165 90 76 0 93 -3 108 -19 23 -25 83 -138 83 -156 0 -8 13 -36 28 -62 16 -27 32 -65 36 -85 3 -19 19 -53 34 -75 15 -21 36 -54 46 -73 11 -19 32 -47 48 -62 15 -14 28 -32 28 -40 1 -15 45 -68 58 -68 4 0 13 -5 19 -11 16 -16 205 -63 318 -80 116 -17 671 -18 807 -1 60 7 120 22 158 38 54 24 66 35 108 97 60 90 91 147 91 170 1 11 7 31 15 45 7 15 21 52 30 82 38 118 67 170 107 191 45 22 104 24 139 4 33 -19 70 -19 98 1 35 24 28 44 -17 44 -23 0 -62 12 -97 30 -32 16 -65 30 -71 30 -18 0 -16 20 3 41 24 27 37 207 16 231 -13 16 -69 31 -227 62 -99 19 -193 28 -312 31 -51 1 -98 7 -105 13 -8 6 -97 13 -216 18 -201 7 -203 7 -197 28 4 12 8 32 9 46 1 20 -4 26 -26 28 -23 3 -28 -1 -28 -17 0 -35 -42 -54 -99 -46 -39 5 -57 3 -80 -11 -45 -27 -58 -7 -27 39 14 20 21 39 16 42 -37 23 50 73 98 57 l27 -9 -34 -31 c-33 -32 -33 -36 4 -33 62 5 96 41 76 80 -22 41 27 48 79 10 24 -17 92 16 88 43 -2 11 -11 26 -21 32 -17 11 -26 4 -41 -29 -3 -6 -9 -4 -15 5 -6 8 -29 15 -58 16 -26 1 -76 5 -111 9 -59 7 -65 6 -90 -17 -33 -31 -95 -43 -113 -22 -6 8 -21 14 -32 14 -11 0 -29 8 -40 17 -18 17 -19 17 -28 0 -6 -9 -27 -25 -47 -36 -89 -45 -102 -53 -102 -67 0 -23 29 -28 51 -8 15 14 22 15 32 5 9 -9 7 -16 -12 -30 -14 -11 -22 -25 -19 -37 4 -25 32 -25 36 1 2 11 10 27 17 35 7 8 18 32 26 52 9 28 20 39 41 43 28 6 69 -1 78 -15 3 -4 19 -13 35 -21 20 -10 31 -23 33 -41 4 -34 -54 -81 -103 -82 -28 -1 -37 -8 -57 -39 l-23 -39 -57 5 c-34 3 -60 1 -67 -6 -8 -8 -11 -8 -11 1 0 22 -30 12 -42 -13 -8 -18 -16 -23 -32 -19 -47 12 -176 -30 -176 -57 0 -14 8 -16 48 -12 26 3 54 12 63 19 8 8 31 17 50 20 19 4 40 11 47 17 7 5 61 11 120 14 59 2 127 9 152 16 48 13 627 15 685 3 50 -11 225 -25 311 -26 76 0 222 -29 248 -48 6 -5 30 -14 53 -20 23 -7 44 -20 47 -30 3 -9 4 -62 2 -116 -3 -100 -3 -100 -38 -130 -45 -40 -73 -89 -98 -167 -11 -34 -26 -70 -34 -78 -7 -9 -16 -29 -20 -46 -4 -16 -18 -52 -31 -80 -12 -27 -37 -79 -54 -115 -55 -117 -106 -155 -211 -156 -36 0 -105 -6 -155 -13 -126 -17 -611 -16 -735 3 -52 7 -112 20 -133 28 -55 21 -116 76 -110 99 7 26 -68 120 -107 133 -24 8 -40 24 -60 63 -16 29 -38 66 -49 82 -12 16 -21 35 -21 42 0 22 -32 103 -49 122 -33 39 1 288 47 340 23 26 -2 41 -38 22 -14 -8 -51 -21 -82 -31 -46 -13 -66 -14 -100 -6 -34 9 -58 8 -111 -4 l-69 -16 -31 30 c-31 28 -56 44 -123 76 -17 8 -36 22 -43 30 -8 10 -22 13 -40 10 -19 -4 -32 0 -45 15 -15 16 -22 18 -38 10 -17 -9 -26 -4 -60 32 -28 30 -38 48 -34 63 4 15 -5 32 -31 58 -34 35 -42 38 -90 38 -55 0 -71 -15 -28 -26 14 -3 25 -10 25 -15 0 -5 11 -15 25 -21 19 -8 22 -14 13 -20 -22 -13 -70 -9 -90 9 -25 23 -33 10 -13 -21 12 -17 26 -26 44 -26 15 0 32 -5 38 -11 6 -6 21 -16 34 -23 12 -6 20 -15 18 -21 -5 -13 -47 -7 -73 11 -11 8 -28 14 -38 14 -10 0 -18 6 -18 14 0 9 -8 12 -25 8 -15 -3 -25 -11 -25 -22 0 -27 -26 -30 -255 -31 -115 0 -235 -5 -265 -10 -48 -8 -217 -25 -305 -29 l-30 -2 28 -8 c34 -10 238 -3 288 10 49 13 520 13 588 0 29 -5 104 -10 166 -10 83 0 116 -4 124 -14 6 -7 30 -16 54 -19 23 -3 63 -15 89 -27 40 -17 49 -27 64 -68 9 -26 21 -78 25 -117 4 -38 11 -86 14 -105 5 -27 0 -50 -18 -90 -13 -30 -33 -75 -43 -100 -10 -25 -24 -52 -31 -61 -7 -8 -15 -29 -19 -45 -3 -16 -14 -40 -24 -53 l-18 -24 -7 23 c-4 12 -3 32 3 44 12 24 30 91 42 156 5 25 16 60 25 78 14 27 16 54 13 135 -4 97 -5 104 -34 135 -36 39 -114 70 -204 83 -36 4 -100 14 -143 20 -58 8 -81 9 -90 0 -16 -16 -5 -21 54 -22 31 -1 69 -9 89 -20 19 -11 49 -19 67 -19 18 0 47 -6 65 -14 160 -69 160 -69 166 -176 5 -94 1 -116 -33 -154 -14 -16 -25 -40 -25 -53 0 -13 -5 -33 -11 -44 -6 -11 -12 -40 -15 -64 -2 -25 -13 -71 -25 -102 -11 -32 -27 -79 -35 -105 -9 -29 -25 -54 -42 -66 -46 -31 -147 -72 -206 -82 -31 -6 -82 -15 -113 -20 -100 -18 -379 -22 -563 -9 -96 6 -211 13 -255 13 -44 1 -89 7 -101 13 -30 17 -152 255 -154 301 0 7 -20 47 -45 90 -25 42 -45 87 -45 99 0 13 -4 23 -9 23 -5 0 -18 20 -30 45 -12 25 -28 45 -35 45 -8 0 -18 10 -22 23 -3 12 -13 30 -22 39 -11 14 -14 34 -10 90 5 61 9 75 29 89 13 10 31 24 40 32 9 8 34 17 55 21 22 4 53 14 69 21 17 8 54 17 83 20 28 4 52 11 52 16 0 12 -85 12 -124 0 -66 -20 -183 -42 -219 -41 -51 1 -60 -26 -53 -149 4 -76 9 -98 26 -116 23 -24 26 -45 7 -45 -7 0 -28 -13 -47 -29 -19 -15 -45 -31 -58 -35 -29 -10 -72 17 -72 44 0 24 -73 106 -102 115 -10 4 -23 16 -28 28 -6 16 -8 9 -6 -28 1 -27 8 -60 14 -72 7 -12 12 -33 12 -47 0 -14 9 -35 20 -46 24 -24 26 -68 4 -84 -14 -11 -13 -17 10 -60 30 -56 32 -74 12 -101 -13 -18 -14 -18 -26 5 -7 12 -14 44 -16 69 -10 109 -15 130 -35 136 -10 4 -19 11 -19 16 0 5 -11 14 -24 19 -22 8 -74 73 -88 110 -3 8 -1 26 5 40 6 14 15 48 21 75 10 45 13 50 36 47 14 -2 29 -8 34 -13 18 -17 26 -9 32 31 6 37 10 41 48 51 22 5 59 15 81 22 l40 12 6 105 c3 58 11 118 17 133 7 16 12 39 12 52 0 12 7 36 15 51 8 16 15 36 15 44 0 8 9 30 20 48 11 18 20 39 19 45 -1 7 1 20 6 30 11 26 2 29 -33 11 -19 -9 -32 -23 -32 -35 0 -10 -9 -28 -20 -39 -11 -11 -20 -28 -20 -38 0 -10 -4 -22 -9 -27 -18 -20 -35 -92 -36 -145 0 -49 -2 -55 -23 -58 -18 -3 -21 -8 -16 -27 10 -41 -42 -115 -82 -115 -39 0 -54 46 -59 177 -5 108 -7 122 -40 190 -19 40 -35 75 -35 79 0 3 -14 19 -30 36 -17 17 -30 40 -30 54 0 14 -8 36 -17 51 -16 24 -16 26 1 38 14 11 15 18 8 32 -10 17 -11 16 -20 -7 -9 -23 -10 -24 -17 -5 -4 11 -13 31 -20 45 -15 28 -30 132 -44 295 -5 61 -13 119 -17 129 -5 14 -4 17 4 12 20 -12 14 29 -8 57 -16 20 -18 31 -10 51 5 14 7 61 3 107 -5 72 -9 82 -30 92 -17 7 -22 15 -16 26 4 9 8 72 9 141 3 121 4 127 37 191 19 36 38 77 42 90 16 54 49 111 69 121 18 7 22 18 22 48 -1 21 -4 42 -8 46 -4 4 -3 12 2 19 5 6 11 34 12 61 2 27 5 51 8 54 13 13 80 121 80 128 0 5 9 17 20 27 16 14 17 21 8 32 -14 18 7 36 34 29 13 -3 18 2 18 15 0 10 -7 19 -15 19 -18 0 -20 17 -2 23 6 2 17 -3 23 -11 6 -8 16 -12 22 -8 17 10 15 26 -3 26 -42 0 10 94 70 127 19 11 18 12 -8 18 -15 4 -27 10 -27 12 0 10 35 32 50 33 19 0 41 35 34 53 -5 14 39 72 109 147 18 19 47 58 65 85 17 28 54 71 82 97 27 25 50 53 50 61 0 9 9 18 19 22 11 3 23 15 26 26 8 23 23 25 31 4 10 -24 24 -7 24 28 0 27 7 36 40 55 33 19 39 27 34 46 -4 18 -1 25 17 29 18 5 21 11 15 38 -5 27 -4 30 9 19 19 -16 32 -5 37 30 2 18 9 25 24 25 12 1 29 8 38 18 10 9 24 17 32 17 22 0 136 88 163 126 25 36 36 41 46 23 5 -6 13 -3 22 10 8 12 47 37 86 55 47 23 96 57 142 101 39 37 82 71 98 77 15 5 27 16 27 23 0 23 20 28 40 10 18 -17 20 -16 31 9 7 14 18 26 26 26 7 0 13 7 13 15 0 12 7 14 27 9 23 -6 25 -4 21 14 -5 16 1 22 31 30 45 13 102 35 119 45 10 7 10 12 1 23 -15 18 11 20 29 2 10 -10 17 -10 32 0 11 6 33 12 49 12 26 0 30 3 28 27 -2 20 4 28 23 33 34 9 67 -4 75 -29 4 -13 15 -21 28 -21 12 0 28 -9 35 -20 14 -22 52 -26 71 -7 15 15 213 14 252 -1 20 -8 38 -7 70 5 24 8 79 17 123 20 65 5 79 9 84 25 5 19 16 21 75 12 38 -7 52 -24 18 -24 -11 0 -23 -4 -26 -10 -4 -6 12 -10 41 -10 l47 0 -6 35 c-5 31 -3 36 19 41 18 5 23 11 19 22 -3 9 4 40 16 69 12 30 19 57 15 61 -12 11 -40 -13 -62 -54 -20 -36 -24 -39 -62 -37 -23 1 -52 9 -64 17 -13 9 -44 16 -73 16 -27 1 -61 7 -75 15 -14 8 -33 14 -43 15 -15 0 -17 -5 -11 -37 9 -49 30 -65 76 -58 41 6 88 -8 88 -26 0 -8 -16 -10 -54 -6 -42 4 -56 2 -60 -9 -7 -18 -68 -18 -117 -1 -41 14 -95 67 -114 112 -7 17 -22 38 -32 47 -17 16 -20 16 -42 -1z m-353 -69 c2 -7 -6 -12 -17 -12 -21 0 -27 11 -14 24 9 9 26 2 31 -12z m1677 -3951 c7 -12 -31 -25 -45 -16 -6 4 -8 11 -5 16 8 12 42 12 50 0z m-970 -427 c30 -46 7 -134 -35 -134 -27 0 -40 23 -42 77 -3 79 41 112 77 57z m-2520 -704 c3 -5 14 -40 24 -77 10 -37 26 -81 35 -98 18 -34 22 -150 5 -161 -19 -11 -36 18 -63 106 -28 88 -43 197 -33 224 7 18 23 21 32 6z m573 -2342 c24 -24 5 -83 -24 -77 -21 4 -34 -2 -34 -14 0 -7 -10 -22 -22 -34 -13 -11 -33 -33 -45 -48 -13 -16 -25 -26 -28 -23 -8 8 25 80 51 111 13 16 27 40 30 54 4 13 16 28 28 33 29 12 30 12 44 -2z m-1 -130 c6 -7 9 -46 8 -85 -1 -60 2 -76 17 -89 14 -14 18 -32 18 -86 0 -47 -4 -68 -12 -69 -7 0 -32 0 -56 1 -38 1 -43 -1 -40 -17 1 -11 -4 -30 -13 -44 -9 -13 -19 -34 -23 -47 -12 -36 -31 -20 -30 24 4 92 49 214 90 240 31 21 30 32 -3 36 -23 2 -28 7 -25 27 1 13 -2 29 -8 36 -8 9 -5 14 10 18 13 3 20 13 20 29 0 38 26 52 47 26z"/> <path d="M2565 8620 c-3 -5 5 -12 19 -16 13 -3 32 -14 40 -23 12 -13 25 -16 53 -12 52 9 56 31 5 31 -23 0 -45 6 -52 15 -14 17 -56 20 -65 5z"/> <path d="M3370 8503 c1 -16 26 -41 44 -45 25 -4 31 16 11 36 -17 16 -55 22 -55 9z"/> <path d="M3543 8483 c-17 -6 -17 -43 0 -43 14 0 37 19 37 31 0 10 -23 17 -37 12z"/> <path d="M4080 8470 c0 -24 31 -90 42 -90 4 0 8 20 8 45 0 34 -5 47 -19 55 -27 14 -31 13 -31 -10z"/> <path d="M3607 8473 c-3 -5 10 -26 29 -46 28 -29 43 -37 70 -37 44 0 41 21 -3 32 -22 6 -33 15 -35 31 -2 15 -11 23 -30 25 -14 2 -28 -1 -31 -5z"/> <path d="M2925 8380 c3 -5 18 -10 32 -10 32 0 28 5 -10 14 -19 4 -26 3 -22 -4z"/> <path d="M4570 8280 c-14 -26 7 -65 40 -75 11 -3 20 -15 20 -26 0 -11 10 -23 24 -29 13 -5 27 -14 31 -19 11 -19 88 -51 122 -51 19 0 40 -7 48 -17 44 -50 66 -84 61 -92 -4 -5 7 -24 24 -43 17 -18 29 -42 28 -53 -4 -24 35 -33 58 -14 8 6 16 10 17 8 51 -70 77 -113 88 -145 7 -21 21 -46 31 -56 10 -9 18 -19 18 -23 0 -10 43 -65 52 -65 20 0 5 46 -23 69 -28 24 -30 29 -22 61 13 50 43 54 43 6 0 -20 5 -36 11 -36 14 0 105 -73 142 -114 32 -36 34 -52 7 -61 -37 -12 -14 -65 27 -65 29 0 60 -27 68 -57 l7 -28 16 30 16 30 7 -47 c4 -25 10 -56 14 -67 4 -14 1 -23 -9 -27 -9 -3 -16 -12 -16 -20 0 -19 37 -18 48 2 7 13 11 12 26 -10 9 -14 19 -39 22 -55 8 -40 76 -95 106 -85 18 5 20 3 14 -17 -24 -76 -19 -117 13 -100 14 8 22 6 35 -8 15 -16 15 -22 4 -41 -11 -19 -11 -24 7 -34 41 -24 75 -65 75 -91 0 -14 10 -39 21 -55 13 -16 20 -37 16 -49 -2 -10 4 -33 14 -50 11 -18 19 -40 19 -50 0 -10 9 -30 20 -44 11 -14 20 -34 20 -44 0 -10 5 -24 11 -30 17 -17 0 -35 -27 -29 -14 4 -24 2 -24 -4 0 -5 10 -10 23 -10 33 0 45 -11 62 -60 13 -37 14 -49 3 -68 -11 -22 -10 -26 15 -44 15 -11 27 -26 27 -33 0 -7 11 -37 25 -67 l25 -53 -25 -20 c-29 -24 -31 -37 -10 -55 18 -15 75 -119 75 -137 0 -18 -30 -16 -52 3 -16 16 -18 15 -24 -1 -8 -20 18 -45 46 -45 9 0 29 -17 43 -37 l27 -38 -21 -16 c-21 -16 -21 -17 -3 -27 16 -9 17 -14 6 -32 -10 -17 -10 -21 3 -26 22 -9 18 -34 -5 -34 -25 0 -26 -18 -3 -35 17 -13 17 -14 0 -32 -21 -24 -22 -53 -2 -53 8 0 15 -8 15 -18 0 -30 -13 -35 -26 -10 -10 18 -11 -3 -8 -110 4 -132 3 -133 -20 -142 -31 -11 -40 -50 -20 -89 24 -47 15 -83 -23 -100 -34 -15 -41 -29 -22 -48 19 -19 1 -89 -25 -101 -15 -7 -26 -22 -30 -45 -3 -19 -15 -42 -26 -52 -11 -10 -20 -29 -20 -42 0 -12 -9 -32 -21 -44 -21 -21 -24 -30 -35 -104 -3 -22 -12 -44 -18 -50 -7 -5 -27 -40 -44 -76 -30 -62 -32 -75 -32 -170 0 -96 -13 -155 -27 -121 -12 30 -33 41 -59 32 -28 -11 -44 -6 -44 15 0 20 -58 65 -85 65 -25 0 -45 39 -45 88 0 14 -6 33 -14 41 -18 22 -27 76 -14 89 12 12 3 32 -15 32 -35 -1 -39 -16 -39 -154 -1 -75 3 -140 6 -144 4 -4 35 -9 69 -12 59 -5 63 -7 80 -40 10 -20 23 -34 32 -32 17 3 20 -13 5 -23 -5 -3 -10 -14 -10 -23 0 -10 -9 -23 -20 -30 -11 -7 -20 -19 -20 -26 0 -8 -24 -26 -52 -40 -59 -29 -98 -59 -98 -75 0 -6 11 -16 25 -21 14 -5 25 -14 25 -20 0 -5 7 -10 16 -10 14 0 14 3 4 15 -10 12 -10 18 0 30 19 23 47 18 54 -10 9 -35 43 -51 65 -31 10 9 25 16 33 16 9 0 21 7 29 16 7 9 30 23 51 31 21 8 43 24 49 34 10 19 34 24 63 13 25 -10 20 -19 -44 -86 -33 -34 -60 -67 -60 -74 0 -7 21 -4 64 11 55 19 66 20 70 8 10 -26 6 -38 -16 -48 -17 -7 -24 -20 -26 -45 -1 -19 -7 -52 -14 -72 -8 -29 -8 -41 1 -52 15 -18 5 -100 -14 -116 -8 -6 -16 -29 -20 -51 -5 -28 -12 -39 -24 -39 -41 0 -58 56 -18 62 33 5 34 41 1 57 -26 11 -27 14 -21 71 l7 58 -35 21 c-25 14 -35 27 -35 45 0 13 -3 32 -6 40 -6 17 -71 52 -80 44 -2 -3 2 -31 11 -64 20 -76 19 -86 -6 -118 -16 -21 -20 -35 -15 -62 5 -23 2 -41 -9 -56 -19 -28 -19 -85 0 -118 19 -33 19 -70 -1 -99 -16 -22 -16 -25 4 -40 18 -14 20 -25 17 -101 -2 -47 -8 -114 -14 -150 -6 -36 -13 -107 -16 -159 -3 -52 -12 -107 -19 -123 -11 -21 -13 -42 -6 -81 6 -38 5 -57 -5 -73 -7 -11 -11 -31 -8 -45 3 -17 -3 -31 -21 -48 -22 -21 -26 -33 -26 -83 0 -59 -15 -103 -44 -127 -9 -8 -16 -28 -16 -45 0 -17 -9 -57 -20 -89 -11 -31 -20 -63 -20 -72 0 -16 -4 -25 -38 -92 -13 -25 -22 -60 -22 -87 0 -25 -4 -48 -10 -51 -5 -3 -10 -24 -10 -45 0 -26 -6 -43 -18 -52 -23 -16 -62 -80 -62 -101 0 -8 -11 -35 -25 -58 -14 -24 -25 -52 -25 -62 0 -10 -8 -34 -19 -55 -10 -20 -22 -55 -25 -77 -4 -22 -15 -48 -23 -57 -9 -10 -12 -18 -6 -18 5 0 15 -11 21 -25 10 -21 8 -41 -8 -101 -11 -42 -29 -91 -40 -109 -29 -47 -26 -71 12 -89 17 -9 32 -16 34 -16 1 0 7 15 13 33 7 19 22 40 35 46 20 11 29 10 64 -8 23 -11 45 -27 49 -34 4 -7 32 -32 61 -56 28 -24 52 -48 52 -53 0 -19 -58 -7 -80 17 -28 30 -99 35 -120 10 -9 -11 -16 -13 -24 -5 -22 22 -45 11 -55 -27 -16 -57 -13 -88 9 -108 11 -10 20 -29 20 -42 0 -13 4 -22 9 -19 5 3 7 15 4 25 -9 33 16 91 39 91 11 0 22 8 25 20 6 23 6 23 55 10 45 -13 88 -65 88 -106 0 -16 7 -40 16 -52 12 -18 14 -29 5 -54 -6 -16 -8 -34 -5 -39 3 -5 0 -18 -6 -30 -17 -30 -35 -9 -32 37 4 53 -33 84 -97 84 -44 0 -49 -2 -53 -25 -6 -29 8 -43 25 -26 21 21 33 11 51 -46 9 -32 26 -67 36 -78 15 -16 20 -43 26 -137 4 -64 3 -124 -1 -135 -5 -10 -10 -47 -11 -83 -2 -36 -5 -104 -6 -152 l-4 -88 42 0 c29 0 44 5 48 16 9 24 7 355 -4 469 -8 98 -8 101 21 167 16 36 29 81 29 98 0 17 5 41 11 53 33 61 4 171 -72 274 -22 28 -39 55 -39 58 0 12 -80 110 -99 122 -24 15 -45 85 -36 122 3 14 36 87 72 161 36 74 71 149 78 165 49 115 63 152 75 205 4 19 13 49 18 65 6 17 18 57 28 90 9 33 23 76 30 95 7 19 20 60 29 90 8 30 20 69 24 85 5 17 12 46 15 66 4 21 13 42 21 49 8 7 15 17 15 22 0 5 12 26 27 45 20 26 30 53 34 97 21 203 32 283 41 300 6 11 14 45 19 75 12 86 28 153 44 183 8 14 15 39 15 56 0 16 7 46 15 65 8 20 15 47 15 61 0 13 7 37 15 52 8 16 15 40 15 53 0 29 27 133 45 176 36 85 45 126 65 298 9 76 8 93 -6 123 -13 28 -15 49 -9 107 11 110 10 126 -12 207 -18 66 -18 78 -6 102 7 16 18 28 23 28 6 0 10 6 10 14 0 7 15 29 34 49 22 24 35 49 40 79 10 68 26 107 47 118 25 14 51 77 44 110 -6 30 3 46 30 52 17 3 20 12 20 53 1 120 4 137 25 142 22 6 26 17 35 108 3 37 11 63 20 68 17 9 20 63 5 72 -8 5 -7 12 2 22 19 23 19 83 0 115 -12 21 -14 31 -5 36 7 5 12 62 15 173 2 141 1 170 -13 185 -18 22 -49 116 -49 151 0 13 -6 34 -14 46 -21 32 -39 143 -27 165 6 11 6 24 1 32 -5 8 -19 44 -30 81 -14 42 -34 80 -56 103 -19 20 -34 46 -34 57 0 12 -10 37 -22 57 -18 29 -19 38 -8 55 10 17 10 22 -5 33 -12 9 -17 26 -17 53 1 31 -4 41 -19 46 -13 4 -19 15 -19 37 0 21 -6 31 -20 35 -11 3 -20 11 -20 18 0 7 -3 27 -6 44 -5 25 -3 31 10 31 10 0 24 -7 32 -15 9 -8 21 -15 27 -14 9 0 8 2 0 6 -22 8 -14 30 21 56 18 15 36 38 38 52 5 22 2 25 -26 25 -24 0 -35 -7 -48 -29 -11 -21 -27 -32 -52 -36 -42 -8 -56 -1 -56 29 0 24 -28 56 -48 56 -14 0 -32 32 -32 56 0 10 -12 31 -27 46 -21 22 -28 40 -31 88 -4 56 -22 77 -22 25 0 -22 -17 -35 -45 -35 -13 0 -32 52 -34 90 -2 40 -21 121 -35 149 -14 27 -19 29 -36 19 -15 -10 -23 -9 -39 6 -12 11 -21 25 -21 32 0 7 -28 40 -62 74 -34 34 -63 69 -63 78 0 27 -80 94 -107 91 -39 -5 -68 11 -74 39 -3 15 -10 34 -15 42 -5 8 -12 23 -15 33 -4 9 -14 17 -23 17 -9 0 -27 7 -40 16 -18 13 -28 14 -47 5 -22 -10 -26 -8 -34 15 -13 33 -6 44 31 44 39 0 37 16 -5 30 -19 6 -36 14 -38 18 -7 17 -103 72 -126 72 -13 0 -35 9 -49 20 -14 11 -36 20 -49 20 -17 0 -24 6 -24 20 0 28 32 43 56 25 11 -8 37 -14 59 -14 40 0 40 0 18 18 -14 11 -46 20 -89 24 -50 5 -70 11 -80 26 -9 13 -31 21 -70 26 -32 4 -63 9 -70 12 -7 2 -18 -5 -24 -17z m155 -60 c4 -6 4 -17 1 -25 -4 -12 -10 -12 -36 3 -16 9 -30 20 -30 25 0 11 58 8 65 -3z m783 -778 c2 -7 -3 -12 -12 -12 -9 0 -16 7 -16 16 0 17 22 14 28 -4z m285 -3249 c3 -5 -2 -41 -11 -82 -15 -68 -19 -75 -49 -88 -60 -25 -114 7 -79 46 10 11 16 26 14 33 -2 8 12 34 31 56 25 31 41 42 62 42 15 0 30 -3 32 -7z m95 -20 c5 -18 -20 -16 -44 2 -18 15 -18 15 10 13 16 -2 31 -9 34 -15z m-200 -517 c-1 -22 4 -42 15 -54 21 -23 22 -46 2 -62 -8 -7 -15 -24 -15 -37 0 -28 -17 -27 -34 1 -9 14 -7 21 12 33 25 18 29 48 7 70 -11 10 -15 31 -13 68 2 47 4 51 15 35 8 -11 13 -35 11 -54z m22 -216 c0 -16 -4 -30 -10 -30 -5 0 -10 14 -10 30 0 17 5 30 10 30 6 0 10 -13 10 -30z m-3 -367 c-6 -49 -44 -203 -50 -210 -15 -15 -29 47 -25 118 3 74 5 81 33 104 41 33 48 31 42 -12z m-58 -365 c0 -56 -3 -76 -9 -63 -14 33 -10 145 6 145 2 0 4 -37 3 -82z m-403 -1499 c17 -34 13 -43 -29 -53 -35 -8 -44 11 -22 53 20 39 30 39 51 0z"/> <path d="M4280 8270 c0 -11 10 -30 23 -42 l22 -23 3 23 c3 23 -22 62 -40 62 -4 0 -8 -9 -8 -20z"/> <path d="M3455 8230 c-3 -5 -2 -10 3 -10 4 0 26 -15 46 -34 33 -29 44 -33 77 -29 26 4 47 0 63 -11 36 -23 43 -20 16 9 -13 14 -31 25 -40 25 -9 0 -37 14 -63 30 -48 30 -91 39 -102 20z"/> <path d="M4470 8180 c0 -18 19 -30 46 -30 24 0 16 18 -16 34 -28 13 -30 13 -30 -4z"/> <path d="M3340 8170 c0 -6 8 -13 18 -17 9 -3 29 -17 44 -31 16 -14 33 -22 42 -19 26 10 18 24 -28 51 -47 27 -76 33 -76 16z"/> <path d="M3130 8144 c0 -8 32 -33 43 -34 4 0 2 9 -5 20 -12 19 -38 28 -38 14z"/> <path d="M4040 8116 c0 -24 16 -43 26 -33 8 7 -7 57 -17 57 -5 0 -9 -11 -9 -24z"/> <path d="M4552 8124 c4 -21 22 -23 26 -1 2 10 -3 17 -13 17 -10 0 -15 -6 -13 -16z"/> <path d="M3856 8071 c-11 -18 6 -41 30 -41 26 0 32 18 12 38 -14 14 -35 16 -42 3z"/> <path d="M4106 8056 c6 -16 34 -29 43 -20 6 6 -27 34 -41 34 -4 0 -5 -6 -2 -14z"/> <path d="M4380 8055 c0 -6 9 -20 21 -31 15 -13 24 -16 36 -8 30 19 25 31 -17 42 -31 7 -40 7 -40 -3z"/> <path d="M4612 8054 c1 -9 9 -19 16 -22 9 -3 13 2 10 14 -1 9 -9 19 -16 22 -9 3 -13 -2 -10 -14z"/> <path d="M3090 8045 c0 -8 7 -15 15 -15 8 0 15 4 15 9 0 5 -7 11 -15 15 -9 3 -15 0 -15 -9z"/> <path d="M2695 8040 c-4 -6 5 -10 19 -10 14 0 26 5 26 10 0 6 -9 10 -19 10 -11 0 -23 -4 -26 -10z"/> <path d="M3530 8016 c0 -8 5 -18 10 -21 6 -3 10 3 10 14 0 12 -4 21 -10 21 -5 0 -10 -6 -10 -14z"/> <path d="M3660 8017 c0 -18 32 -47 53 -47 9 0 17 6 17 13 0 12 -12 21 -62 45 -5 2 -8 -3 -8 -11z"/> <path d="M4520 8000 c0 -22 37 -47 51 -33 11 11 -17 53 -37 53 -8 0 -14 -9 -14 -20z"/> <path d="M3200 7960 c0 -5 9 -10 21 -10 11 0 17 5 14 10 -3 6 -13 10 -21 10 -8 0 -14 -4 -14 -10z"/> <path d="M3975 7960 c3 -5 13 -10 21 -10 8 0 14 5 14 10 0 6 -9 10 -21 10 -11 0 -17 -4 -14 -10z"/> <path d="M3400 7930 c-18 -11 -15 -14 29 -29 42 -14 50 -8 26 19 -20 22 -33 24 -55 10z"/> <path d="M5282 7886 c-17 -17 -20 -24 -10 -34 20 -20 47 -14 54 12 6 25 -1 47 -14 45 -4 0 -17 -10 -30 -23z"/> <path d="M4832 7838 c5 -15 28 -18 29 -3 0 6 -7 12 -17 13 -10 3 -15 -1 -12 -10z"/> <path d="M5061 7757 c-9 -11 -8 -17 4 -27 12 -10 16 -9 21 5 9 23 -10 40 -25 22z"/> <path d="M4767 7693 c-4 -6 -3 -22 1 -37 6 -22 10 -25 18 -15 8 10 7 21 -1 37 -7 13 -15 20 -18 15z"/> <path d="M3647 7614 c-11 -12 3 -24 29 -24 27 0 32 15 8 24 -20 8 -29 8 -37 0z"/> <path d="M4793 7585 c-3 -9 -3 -18 0 -21 9 -9 27 6 27 22 0 19 -19 18 -27 -1z"/> <path d="M2015 7570 c-4 -6 5 -10 20 -10 15 0 24 4 20 10 -3 6 -12 10 -20 10 -8 0 -17 -4 -20 -10z"/> <path d="M3848 7560 c12 -5 22 -14 22 -20 0 -5 8 -10 18 -10 14 1 13 4 -7 20 -13 11 -31 20 -40 19 -11 0 -9 -3 7 -9z"/> <path d="M4859 7554 c-10 -13 -10 -17 2 -25 23 -14 29 -11 29 16 0 29 -12 32 -31 9z"/> <path d="M5277 7564 c-4 -4 -7 -16 -7 -26 0 -14 6 -19 23 -16 14 2 22 10 22 23 0 20 -25 32 -38 19z"/> <path d="M4000 7450 c0 -5 5 -10 12 -10 6 0 20 -8 30 -17 13 -12 22 -13 29 -6 8 8 4 15 -12 27 -26 18 -59 21 -59 6z"/> <path d="M4253 7303 c-4 -10 2 -22 18 -34 30 -23 32 -26 65 -66 21 -27 29 -31 45 -23 27 15 24 24 -20 48 -22 13 -49 38 -61 57 -24 38 -37 44 -47 18z"/> <path d="M3510 7277 c0 -8 9 -22 20 -32 11 -10 20 -13 20 -7 0 7 -4 12 -10 12 -5 0 -10 6 -10 14 0 8 -4 18 -10 21 -5 3 -10 0 -10 -8z"/> <path d="M3772 7274 c1 -9 9 -19 16 -22 9 -3 13 2 10 14 -1 9 -9 19 -16 22 -9 3 -13 -2 -10 -14z"/> <path d="M4420 7183 c0 -5 9 -19 20 -33 17 -22 19 -23 25 -7 4 9 2 24 -5 32 -13 16 -40 21 -40 8z"/> <path d="M2610 7120 c0 -12 42 -31 50 -23 6 5 -30 33 -42 33 -4 0 -8 -5 -8 -10z"/> <path d="M4490 7115 c0 -8 5 -15 10 -15 6 0 10 7 10 15 0 8 -4 15 -10 15 -5 0 -10 -7 -10 -15z"/> <path d="M6106 7105 c-16 -24 -15 -25 3 -25 10 0 22 7 25 16 16 40 -3 47 -28 9z"/> <path d="M2684 7099 c-7 -12 12 -29 34 -29 15 0 16 12 0 28 -15 15 -25 15 -34 1z"/> <path d="M2845 7090 c-10 -17 12 -37 25 -24 8 8 6 15 -4 23 -10 9 -16 9 -21 1z"/> <path d="M4801 7035 c1 -48 1 -49 10 -17 6 21 6 39 0 50 -8 13 -10 5 -10 -33z"/> <path d="M3060 7041 c0 -9 55 -41 69 -41 7 1 -27 27 -51 41 -12 6 -18 6 -18 0z"/> <path d="M2810 7025 c0 -9 5 -15 11 -13 6 2 11 8 11 13 0 5 -5 11 -11 13 -6 2 -11 -4 -11 -13z"/> <path d="M2895 7030 c-10 -17 12 -37 25 -24 8 8 6 15 -4 23 -10 9 -16 9 -21 1z"/> <path d="M625 6881 c-7 -12 12 -24 25 -16 11 7 4 25 -10 25 -5 0 -11 -4 -15 -9z"/> <path d="M2375 6850 c-3 -5 3 -10 14 -10 12 0 21 5 21 10 0 6 -6 10 -14 10 -8 0 -18 -4 -21 -10z"/> <path d="M2212 6749 c2 -7 10 -15 17 -17 8 -3 12 1 9 9 -2 7 -10 15 -17 17 -8 3 -12 -1 -9 -9z"/> <path d="M3900 6694 c0 -9 7 -14 17 -12 25 5 28 28 4 28 -12 0 -21 -6 -21 -16z"/> <path d="M1920 6685 c0 -24 30 -32 133 -37 81 -3 96 -2 82 9 -10 7 -38 15 -64 18 -25 4 -56 10 -69 16 -36 14 -82 11 -82 -6z"/> <path d="M2200 6610 c0 -12 45 -24 60 -15 5 3 8 11 5 16 -8 12 -65 12 -65 -1z"/> <path d="M5810 6613 c-71 -12 -60 -33 19 -39 49 -3 51 -2 51 21 0 26 -9 28 -70 18z"/> <path d="M3753 6594 c-7 -18 11 -39 26 -30 17 11 13 46 -4 46 -9 0 -18 -7 -22 -16z"/> <path d="M3565 6579 c-10 -15 3 -25 16 -12 7 7 7 13 1 17 -6 3 -14 1 -17 -5z"/> <path d="M3345 6523 c-30 -7 -41 -21 -28 -34 15 -15 83 7 83 27 0 14 -17 16 -55 7z"/> <path d="M1980 6490 c0 -5 9 -10 21 -10 11 0 17 5 14 10 -3 6 -13 10 -21 10 -8 0 -14 -4 -14 -10z"/> <path d="M3738 6463 c-2 -18 -17 -36 -47 -57 -24 -17 -43 -35 -43 -41 2 -17 48 -17 62 -1 14 18 70 22 70 6 0 -5 5 -10 11 -10 8 0 8 5 -1 15 -10 12 -10 18 0 30 11 13 10 18 -8 31 -12 8 -22 21 -22 29 0 26 -19 25 -22 -2z"/> <path d="M1825 6461 c-6 -11 9 -23 19 -14 9 9 7 23 -3 23 -6 0 -12 -4 -16 -9z"/> <path d="M2239 6439 c-12 -8 -11 -12 4 -24 19 -14 47 -10 47 6 0 15 -35 28 -51 18z"/> <path d="M3260 6420 c-6 -11 -26 -27 -45 -35 -19 -7 -35 -19 -35 -24 0 -6 -15 -11 -34 -11 -42 0 -122 -44 -129 -70 -3 -11 -14 -20 -24 -20 -20 0 -63 -39 -63 -57 0 -6 -7 -16 -15 -23 -21 -18 -19 -47 6 -60 17 -10 25 -7 46 14 13 14 22 30 18 36 -4 6 7 25 24 42 17 18 31 35 31 40 0 13 39 29 97 38 38 6 65 18 83 35 14 14 31 25 38 25 19 0 42 44 35 68 -7 27 -19 28 -33 2z"/> <path d="M3956 6395 c-8 -33 -1 -45 30 -45 25 0 28 9 18 48 -9 30 -40 29 -48 -3z"/> <path d="M2345 6400 c-4 -6 12 -10 40 -10 28 0 44 4 40 10 -3 6 -21 10 -40 10 -19 0 -37 -4 -40 -10z"/> <path d="M3804 6333 c-10 -16 -15 -16 -34 -5 -19 12 -25 11 -38 -1 -19 -20 -9 -47 19 -47 15 0 19 -4 15 -16 -4 -9 -2 -22 4 -29 9 -10 22 -9 66 7 54 20 57 20 89 2 33 -17 55 -50 55 -80 0 -20 30 -30 41 -13 16 25 10 39 -26 60 -21 13 -35 29 -35 40 0 12 -11 24 -27 30 -16 6 -40 23 -55 40 -30 33 -58 37 -74 12z"/> <path d="M2100 6330 c0 -5 7 -10 15 -10 8 0 15 5 15 10 0 6 -7 10 -15 10 -8 0 -15 -4 -15 -10z"/> <path d="M1985 6323 c-11 -3 -24 -9 -29 -14 -6 -5 -16 -9 -22 -9 -7 0 -25 -5 -41 -12 -15 -6 -50 -10 -77 -9 -37 2 -47 0 -44 -10 3 -8 13 -13 23 -11 30 6 63 -7 68 -26 4 -15 5 -16 6 0 1 19 55 38 106 38 38 0 108 24 113 39 2 6 -3 11 -11 11 -8 0 -27 2 -43 4 -16 2 -38 2 -49 -1z"/> <path d="M2396 6311 c-3 -5 8 -11 26 -15 34 -7 44 -3 33 13 -8 13 -52 15 -59 2z"/> <path d="M3980 6304 c0 -9 7 -14 17 -12 25 5 28 28 4 28 -12 0 -21 -6 -21 -16z"/> <path d="M3360 6290 c0 -11 5 -20 10 -20 6 0 10 9 10 20 0 11 -4 20 -10 20 -5 0 -10 -9 -10 -20z"/> <path d="M5658 6281 c9 -17 28 -32 42 -34 14 -3 35 -8 48 -12 31 -10 29 13 -3 25 -15 6 -25 17 -25 30 0 17 -7 20 -40 20 l-39 0 17 -29z"/> <path d="M2866 6273 c-14 -15 -24 -29 -22 -30 7 -7 75 31 80 44 10 24 -32 14 -58 -14z"/> <path d="M3635 6271 c-54 -10 -82 -26 -100 -60 -13 -25 -13 -30 0 -41 8 -7 21 -10 29 -7 7 3 19 0 25 -6 8 -8 11 -8 11 0 0 6 -6 13 -12 15 -21 7 8 60 30 54 9 -3 38 -8 64 -12 53 -7 69 7 48 45 -11 22 -25 24 -95 12z"/> <path d="M3415 6263 c-16 -3 -33 -11 -38 -18 -4 -8 -24 -17 -45 -21 -52 -9 -69 -20 -76 -49 -4 -16 -16 -27 -33 -31 -15 -4 -38 -13 -52 -20 -14 -8 -30 -14 -34 -14 -13 0 -70 -43 -91 -68 -10 -13 -29 -28 -43 -33 -31 -11 -39 -34 -23 -65 19 -35 40 -31 40 9 0 40 23 64 68 73 40 8 45 -17 7 -34 -14 -7 -25 -20 -25 -31 0 -11 -4 -23 -10 -26 -36 -22 18 -57 71 -46 27 5 36 13 43 38 8 27 14 31 40 31 20 -1 37 7 53 27 54 63 103 95 144 95 36 0 41 3 55 35 7 19 14 37 14 40 0 9 -39 5 -45 -5 -9 -15 -45 -12 -45 4 0 8 5 18 10 21 6 3 10 15 10 26 0 16 6 19 28 17 23 -3 27 1 30 25 2 18 -1 26 -10 26 -7 -1 -26 -4 -43 -6z m-60 -73 c3 -5 -3 -10 -15 -10 -12 0 -18 5 -15 10 3 6 10 10 15 10 5 0 12 -4 15 -10z m-20 -54 c16 -12 17 -16 6 -30 -13 -16 -61 -23 -61 -8 1 23 14 52 24 52 7 0 21 -6 31 -14z"/> <path d="M2214 6249 c-3 -5 13 -9 35 -9 21 0 46 -3 55 -6 10 -4 16 -1 16 7 0 16 -96 23 -106 8z"/> <path d="M5544 6236 c-4 -9 -4 -20 0 -23 3 -4 12 -1 18 5 9 9 9 15 0 24 -9 9 -13 7 -18 -6z"/> <path d="M2770 6224 c0 -10 7 -14 22 -12 32 5 35 28 4 28 -17 0 -26 -5 -26 -16z"/> <path d="M2615 6220 c-4 -6 6 -10 24 -10 16 0 33 -5 36 -11 8 -11 -32 -59 -49 -59 -16 -1 -56 -36 -56 -49 0 -16 26 -13 40 4 7 8 20 15 30 15 10 0 20 7 24 15 3 8 11 15 19 15 14 0 57 40 57 53 0 4 -8 7 -18 7 -10 0 -27 7 -38 15 -22 17 -60 20 -69 5z"/> <path d="M4067 6208 c-8 -27 20 -75 35 -60 13 13 -1 82 -17 82 -7 0 -15 -10 -18 -22z"/> <path d="M4162 6218 c-16 -16 -15 -28 3 -28 8 0 15 9 15 20 0 23 -2 24 -18 8z"/> <path d="M1995 6210 c-4 -6 5 -10 19 -10 14 0 26 5 26 10 0 6 -9 10 -19 10 -11 0 -23 -4 -26 -10z"/> <path d="M2078 6213 c-16 -2 -28 -11 -28 -18 0 -26 21 -27 45 -1 13 14 21 25 17 25 -4 -1 -19 -4 -34 -6z"/> <path d="M2520 6205 c0 -8 5 -15 10 -15 6 0 10 7 10 15 0 8 -4 15 -10 15 -5 0 -10 -7 -10 -15z"/> <path d="M2844 6187 c-3 -9 -16 -18 -30 -21 -13 -4 -24 -10 -24 -15 0 -13 31 -3 59 18 16 12 20 21 12 25 -6 4 -14 1 -17 -7z"/> <path d="M2305 6180 c-4 -6 -18 -15 -31 -21 -21 -7 -23 -12 -14 -29 13 -24 33 -26 54 -4 18 17 20 32 7 53 -6 10 -10 10 -16 1z"/> <path d="M1846 6131 c-4 -5 -20 -9 -36 -9 -31 1 -63 -18 -54 -33 9 -15 71 -10 84 6 7 8 21 15 32 15 11 0 18 5 16 13 -6 15 -34 21 -42 8z"/> <path d="M2130 6126 c0 -16 19 -25 38 -19 22 8 13 33 -13 33 -15 0 -25 -6 -25 -14z"/> <path d="M4185 6120 c-13 -41 32 -147 54 -125 15 15 25 85 12 85 -6 0 -17 14 -26 30 -18 35 -31 38 -40 10z"/> <path d="M2480 6110 c-14 -11 -36 -20 -49 -20 -13 0 -36 -11 -53 -25 -16 -14 -40 -25 -53 -25 -13 0 -27 -4 -30 -10 -3 -5 -16 -10 -29 -10 -30 0 -54 -20 -62 -52 -6 -28 -6 -28 43 -28 27 0 54 -5 61 -12 6 -6 15 -9 18 -5 10 9 -15 37 -33 37 -8 0 -12 6 -9 13 3 6 9 20 12 30 5 12 17 17 48 17 25 0 64 11 101 30 33 16 65 30 71 30 11 0 24 22 24 41 0 16 -34 9 -60 -11z"/> <path d="M3778 6118 c-6 -17 1 -38 13 -38 5 0 9 11 9 25 0 26 -14 34 -22 13z"/> <path d="M5060 6101 c0 -11 5 -23 10 -26 6 -4 10 5 10 19 0 14 -4 26 -10 26 -5 0 -10 -9 -10 -19z"/> <path d="M1680 6095 c0 -11 7 -15 23 -13 12 2 22 8 22 13 0 6 -10 11 -22 13 -16 2 -23 -2 -23 -13z"/> <path d="M2837 6089 c-10 -11 -16 -24 -12 -27 3 -4 9 -1 13 5 4 6 16 12 26 14 26 5 33 29 9 29 -10 0 -27 -9 -36 -21z"/> <path d="M1970 6070 c0 -5 18 -10 39 -10 22 0 43 5 46 10 4 6 -12 10 -39 10 -25 0 -46 -4 -46 -10z"/> <path d="M3820 6063 c0 -4 8 -17 16 -28 15 -20 16 -20 12 4 -3 22 -28 44 -28 24z"/> <path d="M5525 6060 c3 -5 15 -10 26 -10 10 0 19 5 19 10 0 6 -12 10 -26 10 -14 0 -23 -4 -19 -10z"/> <path d="M2780 6031 c0 -18 26 -48 34 -40 2 2 2 16 -1 32 -6 30 -33 37 -33 8z"/> <path d="M4801 6037 c-11 -15 -5 -47 9 -47 7 0 10 9 19 45 4 16 -15 17 -28 2z"/> <path d="M5892 6038 c5 -15 28 -18 29 -3 0 6 -7 12 -17 13 -10 3 -15 -1 -12 -10z"/> <path d="M1560 6007 c0 -10 -7 -20 -15 -23 -23 -9 -18 -26 7 -22 25 3 36 34 19 51 -8 8 -11 6 -11 -6z"/> <path d="M2495 6007 c-11 -7 -45 -19 -75 -27 -44 -12 -56 -20 -58 -37 -3 -21 0 -22 30 -16 18 3 44 14 57 25 13 10 29 18 36 18 6 0 19 8 28 18 29 32 19 42 -18 19z"/> <path d="M3581 5998 c-27 -70 -34 -109 -22 -121 10 -9 15 -8 26 7 16 22 38 114 29 127 -9 16 -24 10 -33 -13z"/> <path d="M4638 6003 c-27 -31 -39 -63 -33 -83 8 -27 22 -25 31 3 3 12 13 29 20 38 10 11 12 23 6 38 -8 21 -9 21 -24 4z"/> <path d="M4491 5988 c13 -24 38 -47 52 -48 17 0 5 39 -18 54 -35 23 -48 21 -34 -6z"/> <path d="M5490 6003 c0 -5 9 -19 20 -33 13 -17 22 -22 29 -15 6 6 7 15 3 20 -10 14 -52 37 -52 28z"/> <path d="M5685 6000 c3 -5 13 -10 21 -10 8 0 12 5 9 10 -3 6 -13 10 -21 10 -8 0 -12 -4 -9 -10z"/> <path d="M4050 5969 c0 -11 5 -17 10 -14 6 3 10 13 10 21 0 8 -4 14 -10 14 -5 0 -10 -9 -10 -21z"/> <path d="M4370 5971 c0 -19 17 -38 25 -29 7 7 -7 48 -16 48 -5 0 -9 -9 -9 -19z"/> <path d="M5370 5975 c0 -9 5 -15 11 -13 6 2 11 8 11 13 0 5 -5 11 -11 13 -6 2 -11 -4 -11 -13z"/> <path d="M3704 5935 c-7 -29 -1 -41 15 -30 14 8 14 55 1 55 -5 0 -12 -11 -16 -25z"/> <path d="M1445 5933 c-46 -24 -60 -53 -27 -53 10 0 30 13 45 28 42 44 35 54 -18 25z"/> <path d="M4422 5914 c1 -9 9 -19 16 -22 9 -3 13 2 10 14 -1 9 -9 19 -16 22 -9 3 -13 -2 -10 -14z"/> <path d="M4227 5913 c-4 -3 -7 -20 -7 -36 0 -16 -5 -59 -12 -94 -10 -54 -9 -74 5 -131 9 -37 18 -80 19 -97 l3 -30 23 40 c19 31 22 43 13 57 -14 22 -14 65 -1 73 8 5 7 11 -1 21 -6 7 -8 22 -5 31 11 28 -5 173 -19 173 -6 0 -15 -3 -18 -7z"/> <path d="M2688 5883 c-35 -17 -52 -33 -63 -59 -26 -63 -18 -72 24 -26 21 23 47 42 58 42 24 0 43 19 43 41 0 27 -11 27 -62 2z"/> <path d="M4776 5863 c10 -43 22 -50 46 -26 28 28 18 53 -22 53 -28 0 -30 -2 -24 -27z"/> <path d="M2075 5844 c-19 -29 -10 -49 9 -21 7 9 18 17 25 17 6 0 11 7 11 15 0 24 -26 17 -45 -11z"/> <path d="M3910 5862 c0 -21 42 -104 56 -109 25 -9 30 8 9 25 -12 10 -25 32 -31 51 -8 31 -34 56 -34 33z"/> <path d="M1514 5825 c-9 -23 16 -46 44 -43 27 3 44 28 19 28 -8 0 -20 7 -27 15 -16 19 -29 19 -36 0z"/> <path d="M3003 5828 c-15 -20 -43 -80 -43 -93 0 -6 -13 -29 -30 -51 -30 -39 -41 -106 -20 -119 10 -6 50 65 50 90 0 9 19 35 41 58 38 39 69 91 69 117 0 14 -56 13 -67 -2z"/> <path d="M4046 5793 c-3 -26 -7 -59 -7 -73 0 -14 -5 -33 -11 -43 -6 -13 -4 -33 7 -68 20 -59 41 -60 37 -3 -1 21 -4 80 -5 131 -2 103 -12 128 -21 56z"/> <path d="M4476 5782 c-12 -11 -5 -22 13 -22 11 0 27 -7 36 -16 21 -22 28 -13 10 13 -15 21 -49 36 -59 25z"/> <path d="M1975 5753 c-14 -15 -25 -39 -25 -53 l1 -25 17 24 c9 13 27 33 40 46 26 26 28 35 7 35 -8 0 -26 -12 -40 -27z"/> <path d="M1423 5758 c-30 -14 -30 -41 -2 -36 25 4 61 48 38 47 -8 0 -24 -5 -36 -11z"/> <path d="M4697 5742 c-10 -10 -17 -28 -17 -41 0 -21 1 -21 25 -5 15 10 25 26 25 40 0 29 -11 31 -33 6z"/> <path d="M3594 5739 c-3 -6 -1 -16 5 -22 8 -8 11 -5 11 11 0 24 -5 28 -16 11z"/> <path d="M4515 5660 c-7 -12 2 -30 16 -30 12 0 12 27 0 35 -5 3 -12 1 -16 -5z"/> <path d="M1285 5620 c-4 -6 -3 -16 3 -22 6 -6 12 -6 17 2 4 6 3 16 -3 22 -6 6 -12 6 -17 -2z"/> <path d="M5615 5599 c-5 -7 2 -19 16 -30 32 -25 39 -24 39 6 0 14 -4 25 -9 25 -5 0 -16 3 -24 6 -8 3 -18 0 -22 -7z"/> <path d="M4768 5568 c-6 -33 2 -60 15 -55 14 5 12 56 -1 69 -6 6 -11 0 -14 -14z"/> <path d="M4922 5582 c-21 -7 -22 -8 -7 -29 27 -38 63 -25 50 17 -7 21 -8 22 -43 12z"/> <path d="M4702 5506 c2 -15 8 -26 13 -26 15 0 12 43 -3 48 -10 3 -13 -4 -10 -22z"/> <path d="M4804 5435 c-9 -23 3 -44 31 -57 35 -16 42 -3 20 37 -19 37 -42 45 -51 20z"/> <path d="M5874 5439 c-3 -6 -1 -16 5 -22 8 -8 11 -5 11 11 0 24 -5 28 -16 11z"/> <path d="M4030 5405 c-15 -18 -6 -45 14 -45 16 0 31 34 21 50 -9 14 -21 12 -35 -5z"/> <path d="M5067 5404 c-9 -10 2 -24 18 -24 9 0 12 6 9 15 -6 16 -17 19 -27 9z"/> <path d="M1433 5390 c-12 -5 -26 -17 -32 -28 -9 -17 -7 -19 17 -14 33 6 52 20 52 38 0 16 -6 16 -37 4z"/> <path d="M1255 5368 c-15 -22 -14 -23 4 -26 26 -4 61 15 61 33 0 24 -47 18 -65 -7z"/> <path d="M6111 5368 c-10 -25 1 -44 18 -34 14 9 14 56 1 56 -6 0 -15 -10 -19 -22z"/> <path d="M4740 5336 c0 -8 4 -17 9 -20 5 -3 12 -39 17 -78 6 -60 9 -68 15 -43 14 63 10 120 -11 138 -25 21 -30 21 -30 3z"/> <path d="M1185 5321 c-10 -17 11 -21 31 -6 18 14 18 14 -3 15 -12 0 -24 -4 -28 -9z"/> <path d="M1247 5224 c-26 -25 -47 -50 -47 -55 0 -17 18 -9 37 15 11 13 27 25 37 27 25 5 44 35 31 48 -7 7 -26 -5 -58 -35z"/> <path d="M5057 5264 c-12 -12 13 -42 44 -53 40 -14 39 -14 39 2 0 6 -16 22 -35 35 -38 24 -39 25 -48 16z"/> <path d="M1113 5228 c2 -7 10 -13 17 -13 7 0 15 6 18 13 2 7 -5 12 -18 12 -13 0 -20 -5 -17 -12z"/> <path d="M4910 5231 c0 -25 14 -41 36 -41 29 0 32 25 5 40 -24 12 -41 13 -41 1z"/> <path d="M5180 5160 c0 -5 7 -10 15 -10 8 0 15 5 15 10 0 6 -7 10 -15 10 -8 0 -15 -4 -15 -10z"/> <path d="M5050 5150 c0 -17 43 -70 56 -70 24 0 25 20 4 50 -20 29 -60 42 -60 20z"/> <path d="M1163 5107 c-4 -8 -16 -16 -25 -20 -17 -6 -26 -37 -11 -37 12 0 83 52 83 61 0 14 -38 10 -47 -4z"/> <path d="M5195 5080 c-3 -5 -1 -10 4 -10 6 0 11 -6 11 -14 0 -19 19 -31 31 -19 5 5 3 18 -7 31 -16 24 -29 28 -39 12z"/> <path d="M970 5004 c-42 -38 -50 -61 -24 -71 21 -8 84 54 84 84 0 32 -13 29 -60 -13z"/> <path d="M5316 4851 c-18 -20 -18 -22 15 -60 19 -21 44 -50 56 -65 l21 -25 17 25 c21 33 16 57 -14 64 -16 3 -27 17 -35 40 -13 41 -35 49 -60 21z"/> <path d="M1981 4736 c-7 -9 -11 -23 -7 -31 4 -13 16 -14 56 -9 43 6 50 4 50 -10 0 -17 37 -36 71 -36 16 0 19 5 14 20 -8 24 14 35 51 26 l25 -7 -23 -19 c-22 -18 -22 -19 -4 -26 14 -5 23 -2 34 14 18 27 51 28 83 3 28 -21 77 -32 85 -19 3 5 -3 12 -15 15 -11 3 -27 16 -36 29 -13 21 -21 24 -49 18 -25 -4 -36 -2 -42 9 -7 12 -35 16 -119 20 -60 3 -122 8 -136 12 -17 4 -29 2 -38 -9z"/> <path d="M1758 4716 c-15 -15 -148 -19 -148 -4 0 4 -13 8 -29 8 -20 0 -30 -6 -34 -20 -4 -17 -9 -19 -32 -10 -38 14 -71 12 -85 -5 -7 -8 -21 -15 -32 -15 -42 0 -218 -111 -218 -137 0 -16 70 -63 93 -63 27 0 52 23 42 40 -3 5 -17 10 -31 10 -31 0 -31 13 3 35 21 14 30 15 45 6 25 -16 83 -14 98 4 7 8 27 15 44 15 17 1 49 11 71 24 32 18 41 29 43 54 3 30 16 43 24 24 2 -4 25 -18 52 -31 l48 -22 22 20 c29 27 37 27 70 -8 16 -16 35 -27 42 -24 17 6 74 -15 74 -28 0 -4 12 -19 26 -32 17 -16 22 -27 15 -31 -20 -13 -11 -26 17 -26 15 0 42 9 61 21 18 11 40 18 48 14 9 -3 21 2 28 12 12 16 17 15 70 -11 31 -15 63 -25 71 -22 22 9 16 36 -10 46 -13 5 -27 13 -30 19 -3 5 -24 12 -46 16 -22 4 -51 16 -65 26 -27 22 -49 17 -42 -10 6 -24 -18 -55 -38 -47 -12 4 -14 10 -5 25 15 28 12 41 -7 41 -10 0 -31 9 -48 20 -16 11 -40 20 -52 20 -13 0 -23 5 -23 10 0 16 -62 50 -92 50 -15 0 -33 -6 -40 -14z m242 -115 c0 -10 -50 -25 -57 -17 -3 2 -2 9 2 15 8 13 55 15 55 2z"/> <path d="M4540 4720 c0 -5 10 -10 23 -10 12 0 36 -9 52 -20 17 -11 36 -20 43 -20 22 0 12 20 -20 40 -34 21 -98 27 -98 10z"/> <path d="M5456 4703 c-11 -11 -6 -59 8 -79 13 -17 16 -18 31 -3 16 15 12 49 -6 49 -5 0 -9 6 -9 14 0 17 -14 28 -24 19z"/> <path d="M4394 4685 c-9 -22 3 -34 49 -46 74 -19 85 -41 35 -63 -54 -24 -82 -51 -74 -71 6 -16 8 -17 24 -1 10 9 31 16 45 16 17 0 37 11 54 31 27 30 31 31 87 26 46 -4 64 -11 83 -31 27 -29 66 -34 120 -14 26 9 38 10 51 1 49 -34 104 -55 128 -49 36 10 27 37 -21 61 -22 12 -51 28 -65 37 -39 26 -169 50 -209 38 -24 -7 -41 -6 -60 4 -14 7 -52 17 -83 20 -32 4 -60 12 -64 17 -6 10 -70 39 -86 39 -5 0 -11 -7 -14 -15z m372 -116 c9 -16 -18 -30 -33 -17 -7 6 -10 14 -7 19 7 13 31 11 40 -2z"/> <path d="M2292 4632 c-31 -5 -23 -26 11 -30 19 -2 27 1 27 12 0 19 -9 23 -38 18z"/> <path d="M3254 4616 c-7 -29 1 -46 22 -46 11 0 14 9 12 32 -4 39 -25 48 -34 14z"/> <path d="M4361 4628 c-5 -7 -26 -32 -46 -55 -20 -23 -32 -44 -27 -47 17 -10 67 10 70 30 2 10 10 24 17 29 18 14 23 47 8 52 -6 2 -16 -2 -22 -9z"/> <path d="M1607 4604 c-10 -10 12 -44 29 -44 18 0 64 29 64 41 0 10 -83 12 -93 3z"/> <path d="M3812 4530 c-7 -11 -19 -20 -28 -20 -9 0 -14 -7 -12 -17 4 -22 2 -23 66 14 40 23 49 32 37 37 -29 11 -50 6 -63 -14z"/> <path d="M1473 4529 c14 -8 22 -8 30 0 8 8 3 11 -18 11 -26 -1 -28 -2 -12 -11z"/> <path d="M3572 4529 c2 -6 8 -10 13 -10 5 0 11 4 13 10 2 6 -4 11 -13 11 -9 0 -15 -5 -13 -11z"/> <path d="M690 4510 c0 -19 3 -21 12 -12 9 9 9 15 0 24 -9 9 -12 7 -12 -12z"/> <path d="M2616 4494 c-4 -12 -16 -24 -26 -27 -23 -6 -27 -27 -6 -27 17 0 49 47 43 63 -2 7 -7 2 -11 -9z"/> <path d="M2650 4486 c0 -7 10 -28 23 -47 18 -27 30 -35 60 -37 39 -3 51 12 17 23 -11 3 -20 11 -20 16 0 16 -48 59 -65 59 -8 0 -15 -6 -15 -14z"/> <path d="M2140 4481 c0 -10 30 -24 37 -17 3 3 2 9 -2 15 -8 13 -35 15 -35 2z"/> <path d="M2217 4483 c-14 -13 -6 -24 15 -21 27 4 36 28 11 28 -11 0 -23 -3 -26 -7z"/> <path d="M3240 4456 c0 -8 5 -18 10 -21 6 -3 10 1 10 9 0 8 -4 18 -10 21 -5 3 -10 -1 -10 -9z"/> <path d="M3623 4443 c-4 -10 -11 -21 -17 -25 -6 -4 -8 -10 -4 -13 8 -9 48 26 48 42 0 19 -20 16 -27 -4z"/> <path d="M1170 4415 c-18 -22 1 -39 35 -31 18 5 25 12 23 24 -4 23 -41 27 -58 7z"/> <path d="M4973 4394 c10 -21 17 -24 41 -19 38 7 42 11 26 30 -7 8 -27 15 -45 15 -32 0 -33 -1 -22 -26z"/> <path d="M1803 4308 c-135 -4 -241 -12 -253 -18 -11 -6 -60 -13 -108 -16 -48 -3 -101 -12 -119 -20 -17 -8 -38 -14 -46 -14 -23 0 -85 -42 -92 -63 -4 -10 -17 -25 -31 -33 -13 -9 -24 -23 -24 -30 0 -20 38 -17 49 4 6 11 41 28 86 42 42 13 78 28 81 32 3 4 16 8 29 8 13 0 27 5 30 10 3 6 -1 10 -9 10 -9 0 -16 4 -16 10 0 11 85 2 111 -11 38 -20 98 -27 116 -14 9 7 23 11 29 8 7 -2 32 4 57 15 49 22 233 48 271 38 14 -3 28 -2 31 4 3 6 48 10 100 10 52 0 97 4 100 10 14 23 -86 28 -392 18z"/> <path d="M4100 4300 c0 -5 7 -10 15 -10 8 0 15 5 15 10 0 6 -7 10 -15 10 -8 0 -15 -4 -15 -10z"/> <path d="M3710 4289 c-19 -5 -83 -15 -143 -23 -124 -16 -169 -39 -214 -109 -39 -61 -44 -155 -12 -234 29 -71 28 -71 39 -53 16 25 11 59 -10 72 -17 11 -20 23 -20 88 1 64 4 79 24 102 45 51 123 79 311 112 39 7 77 15 85 18 8 4 60 9 115 13 55 3 104 11 110 16 11 11 -236 10 -285 -2z"/> <path d="M4250 4290 c0 -5 7 -10 15 -10 8 0 15 5 15 10 0 6 -7 10 -15 10 -8 0 -15 -4 -15 -10z"/> <path d="M4320 4292 c0 -21 46 -33 94 -25 46 8 68 31 23 25 -45 -7 -73 -6 -94 2 -13 4 -23 3 -23 -2z"/> <path d="M4487 4294 c-16 -16 9 -24 71 -24 75 0 114 8 106 21 -6 10 -167 12 -177 3z"/> <path d="M4735 4260 c-3 -5 -19 -10 -36 -10 -16 0 -29 -4 -29 -10 0 -11 53 -14 63 -4 4 4 25 8 49 11 64 5 72 23 11 23 -29 0 -55 -4 -58 -10z"/> <path d="M4860 4240 c0 -5 9 -10 21 -10 11 0 17 5 14 10 -3 6 -13 10 -21 10 -8 0 -14 -4 -14 -10z"/> <path d="M2182 4231 c4 -13 18 -16 19 -4 0 4 -5 9 -11 12 -7 2 -11 -2 -8 -8z"/> <path d="M2296 4214 c-22 -22 -20 -55 4 -61 36 -10 21 -18 -33 -18 -39 0 -61 6 -86 24 -32 23 -43 24 -223 28 -158 4 -192 2 -206 -10 -9 -8 -53 -32 -97 -52 -44 -20 -89 -40 -100 -45 -53 -25 -84 -34 -135 -39 -67 -7 -70 -24 -7 -33 25 -3 51 -9 57 -13 7 -4 28 0 48 8 21 8 57 20 82 27 68 19 127 48 142 71 17 26 88 51 106 37 6 -6 12 -25 12 -43 0 -33 22 -87 48 -117 8 -10 35 -27 59 -39 44 -21 46 -21 75 -5 16 10 39 15 51 12 12 -3 27 -2 32 2 15 10 50 62 74 110 12 23 29 42 37 42 9 0 36 -13 61 -30 46 -31 81 -38 100 -19 8 8 16 4 28 -14 9 -14 25 -27 36 -30 33 -9 12 -27 -31 -27 -21 0 -41 -4 -44 -9 -3 -4 -36 -12 -73 -16 -38 -4 -77 -10 -88 -15 -20 -8 -20 -8 0 -15 11 -4 32 -11 47 -17 18 -7 33 -6 46 1 12 6 35 11 52 11 17 0 39 7 48 16 15 15 17 15 32 -4 10 -12 22 -17 29 -12 7 4 31 3 53 -2 48 -10 57 -5 35 20 -10 10 -17 27 -17 37 0 10 -22 40 -50 66 -29 28 -50 57 -50 69 0 37 -18 57 -65 71 -31 9 -45 19 -45 31 0 22 -23 23 -44 2z m-236 -79 c13 -16 6 -65 -10 -65 -5 0 -21 5 -35 10 -21 8 -25 14 -19 33 12 38 42 48 64 22z"/> <path d="M3935 4205 c-22 -8 -50 -15 -62 -15 -11 0 -40 -16 -63 -35 -23 -19 -49 -35 -57 -35 -26 0 -8 -25 21 -28 18 -2 41 6 65 22 20 14 42 26 48 26 6 0 24 7 39 15 16 8 41 15 57 15 29 0 36 17 15 38 -15 15 -13 15 -63 -3z"/> <path d="M4760 4215 c0 -10 54 -26 69 -20 13 5 14 7 1 15 -16 10 -70 14 -70 5z"/> <path d="M4500 4180 c0 -4 22 -10 48 -14 26 -3 58 -13 71 -22 29 -21 40 -9 15 17 -15 14 -37 21 -77 23 -31 2 -57 0 -57 -4z"/> <path d="M4870 4165 c0 -9 16 -32 35 -52 30 -31 35 -43 35 -85 0 -70 18 -59 22 15 4 53 1 67 -20 100 -26 39 -72 53 -72 22z"/> <path d="M4060 4148 c-19 -5 -58 -16 -86 -24 -28 -8 -58 -14 -67 -14 -15 0 -65 -19 -109 -41 -10 -5 -24 -6 -32 -3 -9 3 -21 -5 -31 -20 -14 -21 -15 -29 -5 -41 18 -22 29 -19 124 26 87 41 123 46 136 19 41 -82 60 -124 60 -135 0 -20 33 -27 65 -15 20 7 31 8 39 0 19 -19 64 -10 109 20 61 41 71 55 77 114 4 42 9 52 26 54 12 2 37 -6 55 -18 19 -11 55 -30 80 -43 26 -13 54 -31 63 -40 40 -39 98 -32 104 13 4 25 -12 40 -44 40 -12 0 -27 6 -33 14 -7 8 -27 18 -44 21 -18 4 -54 21 -80 37 -32 21 -64 32 -100 35 -118 9 -274 10 -307 1z m138 -72 c2 -16 -1 -33 -6 -38 -16 -16 -59 0 -65 24 -8 29 10 50 42 46 20 -2 27 -9 29 -32z m62 -16 c-11 -21 -22 -25 -33 -13 -9 9 12 33 30 33 11 0 11 -4 3 -20z"/> <path d="M1110 4060 c0 -18 4 -29 10 -25 6 3 10 15 10 25 0 10 -4 22 -10 25 -6 4 -10 -7 -10 -25z"/> <path d="M3510 4051 c0 -36 9 -61 22 -61 6 0 4 7 -3 16 -11 14 -11 18 4 29 21 15 22 31 1 39 -23 9 -24 8 -24 -23z"/> <path d="M3679 3988 c-6 -13 -20 -30 -31 -39 -17 -13 -18 -19 -9 -37 12 -23 36 -29 46 -12 8 12 52 13 59 1 3 -4 30 -11 60 -14 31 -3 71 -11 89 -18 31 -11 36 -10 56 10 26 26 26 31 2 31 -10 0 -24 7 -31 15 -16 19 -74 19 -90 0 -11 -13 -15 -14 -29 -2 -9 8 -33 18 -55 21 -36 7 -38 9 -32 37 7 36 -17 41 -35 7z"/> <path d="M4762 3988 c2 -12 10 -23 18 -23 22 0 19 39 -3 43 -15 3 -18 -1 -15 -20z"/> <path d="M4702 3958 c-17 -17 -15 -35 4 -42 23 -9 24 -8 24 18 0 30 -12 40 -28 24z"/> <path d="M1647 3923 l-28 -14 25 -20 c21 -16 34 -19 74 -13 38 5 55 2 80 -13 34 -21 33 -33 -5 -33 -13 0 -23 6 -23 14 0 26 -29 26 -46 0 -9 -13 -15 -26 -13 -28 7 -6 192 -28 264 -31 121 -6 156 12 99 50 -23 15 -27 15 -43 1 -20 -18 -42 -21 -57 -6 -8 8 -25 7 -57 -2 -35 -9 -50 -9 -58 -1 -15 15 -3 33 22 33 42 0 16 26 -43 43 -35 9 -77 22 -94 27 -39 13 -63 11 -97 -7z"/> <path d="M3405 3899 c-4 -5 -4 -22 0 -36 3 -14 1 -39 -6 -55 -13 -31 -4 -52 12 -28 8 13 10 13 19 0 13 -19 13 -37 0 -45 -15 -9 -12 -45 5 -51 9 -4 15 -19 15 -36 0 -23 4 -29 17 -26 26 5 27 34 4 57 -23 23 -27 47 -9 53 18 6 10 81 -12 134 -19 44 -33 54 -45 33z"/> <path d="M4479 3900 c-9 -5 -48 -13 -87 -16 -42 -4 -82 -14 -99 -25 -21 -14 -24 -19 -10 -19 29 0 67 -30 60 -47 -4 -11 -2 -14 8 -11 8 3 14 9 14 14 1 5 6 19 13 32 12 21 14 21 42 7 28 -14 31 -14 47 5 23 27 51 26 55 -2 4 -32 30 -29 39 5 7 25 4 31 -24 48 -37 22 -36 22 -58 9z"/> <path d="M5542 3878 c-8 -8 -10 -36 -6 -87 7 -100 12 -121 28 -121 10 0 12 23 10 101 -2 102 -10 129 -32 107z"/> <path d="M5720 3840 c0 -22 1 -23 24 -14 23 9 20 34 -4 34 -13 0 -20 -7 -20 -20z"/> <path d="M2148 3843 c-25 -6 -22 -18 7 -31 31 -14 72 -16 80 -3 5 9 -50 43 -64 40 -3 -1 -14 -3 -23 -6z"/> <path d="M3635 3840 c3 -5 13 -10 21 -10 8 0 14 5 14 10 0 6 -9 10 -21 10 -11 0 -17 -4 -14 -10z"/> <path d="M3916 3802 c-9 -14 14 -29 57 -36 36 -7 38 -6 35 16 -2 19 -10 23 -45 26 -22 2 -44 -1 -47 -6z"/> <path d="M4065 3761 c-31 -4 -45 -9 -37 -14 6 -5 16 -6 20 -3 4 3 28 0 52 -5 35 -8 46 -7 59 6 14 13 14 15 -1 15 -9 0 -22 2 -30 3 -7 2 -35 1 -63 -2z"/> <path d="M2987 3512 c-24 -26 -21 -32 11 -32 31 0 105 34 95 44 -14 14 -90 6 -106 -12z"/> <path d="M3650 3430 c0 -5 12 -10 26 -10 14 0 23 4 19 10 -3 6 -15 10 -26 10 -10 0 -19 -4 -19 -10z"/> <path d="M2560 3278 c-49 -65 -80 -113 -80 -124 0 -7 -7 -14 -15 -18 -8 -3 -15 -17 -15 -31 0 -14 -7 -42 -15 -62 -17 -39 -20 -158 -5 -168 5 -3 12 -29 16 -56 8 -57 30 -84 77 -95 17 -3 44 -15 61 -25 17 -10 41 -19 54 -19 12 0 31 -9 42 -20 27 -27 39 -25 50 6 14 37 14 38 -31 67 -26 17 -54 27 -79 27 -56 0 -97 27 -116 78 -9 23 -21 42 -25 42 -24 0 9 208 35 222 25 14 96 136 98 170 4 45 -21 47 -52 6z"/> <path d="M3543 3292 c-13 -2 -23 -10 -23 -17 0 -22 73 -102 99 -109 17 -5 22 -12 18 -27 -3 -12 2 -27 13 -37 18 -17 60 -142 60 -180 0 -39 -41 -131 -67 -152 -14 -11 -44 -25 -67 -30 -111 -28 -116 -30 -116 -55 0 -14 9 -31 23 -39 25 -17 65 -8 122 28 140 88 135 83 136 129 1 23 3 60 6 82 12 111 -2 225 -28 225 -5 0 -9 11 -9 25 0 18 -17 42 -52 78 -73 72 -90 84 -115 79z"/> <path d="M4510 3126 c0 -13 23 -66 29 -66 15 0 31 25 31 47 0 19 -5 23 -30 23 -16 0 -30 -2 -30 -4z"/> <path d="M2645 2944 c-22 -8 -48 -24 -58 -36 -16 -20 -17 -22 -2 -31 10 -5 28 -4 47 2 71 25 138 1 138 -48 0 -39 25 -43 65 -11 21 16 46 30 55 30 10 0 36 -18 59 -40 29 -28 50 -40 70 -40 17 0 33 -5 36 -11 4 -6 14 -7 24 -3 9 3 35 6 57 5 37 -2 44 2 62 33 25 43 78 55 134 31 56 -23 87 -20 98 10 11 30 45 40 114 31 37 -4 58 -2 71 8 20 15 31 10 -109 51 -54 16 -61 16 -93 1 -18 -9 -46 -16 -61 -16 -42 0 -172 -39 -203 -60 -22 -17 -34 -18 -73 -11 -25 5 -52 14 -61 21 -8 6 -54 22 -103 35 -49 13 -108 33 -130 44 -47 24 -81 25 -137 5z"/> <path d="M1205 2830 c-7 -12 12 -40 27 -40 13 0 6 43 -9 47 -6 2 -14 -1 -18 -7z"/> <path d="M4937 2706 c-3 -8 1 -22 8 -33 13 -17 14 -16 15 15 0 33 -13 43 -23 18z"/> <path d="M890 2555 c0 -8 5 -15 10 -15 6 0 10 7 10 15 0 8 -4 15 -10 15 -5 0 -10 -7 -10 -15z"/> <path d="M3342 2518 c-18 -18 -15 -28 8 -28 13 0 20 7 20 20 0 23 -10 26 -28 8z"/> <path d="M4902 2398 c-16 -16 -15 -43 1 -57 19 -15 37 5 37 41 0 30 -17 37 -38 16z"/> <path d="M3043 2366 l-20 -21 24 -18 c33 -25 51 -16 45 21 -5 39 -23 46 -49 18z"/> <path d="M4610 2370 c0 -18 3 -19 20 -10 22 12 18 30 -6 30 -8 0 -14 -9 -14 -20z"/> <path d="M2882 2243 c2 -11 19 -21 45 -28 23 -5 48 -16 55 -22 14 -15 58 -17 58 -3 0 6 -4 10 -10 10 -5 0 -25 14 -43 30 -41 35 -111 44 -105 13z"/> <path d="M3230 2253 c-8 -3 -34 -19 -56 -35 -29 -21 -40 -35 -37 -48 3 -12 -1 -19 -13 -22 -13 -2 -18 -13 -18 -38 -1 -38 -22 -50 -60 -32 -44 21 -63 23 -170 11 -128 -13 -175 -4 -157 30 6 10 31 31 55 45 25 14 48 31 52 38 12 19 -45 0 -81 -28 -19 -14 -45 -24 -64 -24 -25 0 -40 -9 -64 -36 -38 -43 -138 -92 -216 -106 -31 -6 -63 -14 -71 -19 -8 -5 -22 -12 -30 -15 -105 -43 -161 -92 -100 -87 167 13 203 18 215 30 8 7 35 22 62 34 203 87 168 83 605 76 380 -6 482 -14 555 -41 21 -8 52 -17 68 -21 17 -3 47 -17 67 -31 21 -13 50 -24 66 -24 15 0 52 -6 82 -14 53 -14 80 -12 80 5 0 5 -11 7 -24 3 -19 -4 -27 1 -46 30 -28 46 -62 63 -147 76 -122 18 -130 21 -245 109 -14 12 -35 21 -46 21 -11 0 -24 6 -30 13 -16 18 -111 62 -118 54 -12 -12 26 -57 49 -57 12 0 29 -5 37 -10 12 -8 11 -13 -8 -33 -13 -14 -33 -25 -45 -26 -12 0 -39 -3 -59 -7 -21 -3 -48 -4 -60 0 -26 6 -98 69 -98 85 0 5 27 26 60 46 66 40 73 71 10 48z"/> <path d="M4497 2153 c-10 -9 -9 -43 1 -43 15 0 30 22 25 36 -6 15 -16 18 -26 7z"/> <path d="M1470 2095 c-11 -14 -10 -19 8 -38 21 -20 23 -20 39 -4 14 13 15 21 7 35 -15 23 -38 26 -54 7z"/> <path d="M4794 1999 c-3 -6 -1 -16 5 -22 8 -8 11 -5 11 11 0 24 -5 28 -16 11z"/> <path d="M4880 1951 c-15 -28 -12 -51 5 -51 10 0 15 11 15 35 0 40 -5 43 -20 16z"/> <path d="M2572 1838 c6 -18 28 -21 28 -4 0 9 -7 16 -16 16 -9 0 -14 -5 -12 -12z"/> <path d="M2933 1693 c-16 -6 -17 -65 -1 -81 7 -7 21 -12 33 -12 11 0 35 -9 53 -20 26 -16 32 -26 32 -56 0 -28 3 -35 18 -32 14 3 17 13 14 56 -3 61 -35 122 -64 122 -11 0 -26 7 -34 15 -16 15 -29 17 -51 8z"/> <path d="M3142 1638 c-16 -16 -15 -43 2 -57 19 -16 40 12 32 44 -7 28 -16 31 -34 13z"/> <path d="M3232 1548 c3 -7 15 -14 29 -16 23 -2 23 -2 5 13 -24 18 -39 20 -34 3z"/> <path d="M1287 1083 c-14 -14 -6 -34 18 -45 14 -6 25 -20 25 -31 0 -11 29 -48 68 -86 37 -36 75 -78 84 -93 10 -14 40 -41 68 -59 27 -18 57 -43 65 -56 9 -12 21 -23 28 -23 8 0 35 -21 62 -47 27 -26 69 -57 93 -70 47 -25 61 -35 100 -74 30 -28 90 -59 117 -59 10 0 33 -14 52 -30 18 -17 39 -30 46 -30 7 0 32 -14 56 -30 25 -17 57 -30 74 -30 17 0 53 -11 82 -24 53 -25 86 -38 190 -75 126 -43 202 -63 260 -68 33 -2 103 -9 155 -14 126 -14 331 -18 352 -8 9 5 74 11 145 13 128 5 300 28 338 46 11 5 65 23 120 40 55 18 107 36 115 41 8 5 27 14 43 20 15 6 27 15 27 20 0 5 21 9 48 9 26 0 56 7 66 15 11 8 27 15 37 15 9 0 22 7 29 15 7 8 21 15 32 15 11 0 33 13 50 30 18 19 40 30 57 30 15 0 36 7 47 15 10 8 26 15 34 15 9 0 31 13 50 29 19 15 60 40 90 55 108 54 131 68 148 95 23 36 62 71 78 71 8 0 14 7 14 15 0 22 -28 18 -42 -5 -7 -11 -17 -20 -23 -20 -6 0 -22 -10 -36 -22 -27 -25 -65 -48 -119 -74 -94 -45 -136 -68 -142 -80 -4 -6 -20 -15 -35 -19 -14 -3 -50 -22 -78 -41 -29 -19 -59 -34 -67 -34 -9 0 -19 -7 -22 -16 -4 -11 -14 -15 -31 -12 -16 3 -25 1 -25 -7 0 -7 -18 -15 -40 -19 -21 -3 -60 -17 -86 -31 -26 -14 -54 -25 -64 -25 -9 0 -25 -7 -36 -15 -10 -8 -31 -15 -45 -15 -14 0 -34 -7 -45 -15 -10 -8 -35 -15 -54 -15 -20 0 -46 -7 -58 -16 -24 -17 -110 -35 -188 -39 -28 -1 -64 -9 -80 -16 -21 -10 -77 -14 -213 -14 l-184 0 -38 44 c-36 40 -45 40 -40 3 5 -34 -74 -57 -82 -24 -4 16 -5 16 -6 0 -1 -24 -32 -23 -63 2 -14 10 -29 15 -34 11 -5 -5 -39 -6 -77 -3 -59 4 -66 6 -55 19 11 14 5 15 -49 8 -72 -8 -100 3 -115 46 -12 34 -23 37 -40 9 -18 -28 -38 -25 -116 14 -37 18 -79 36 -94 40 -19 4 -28 13 -28 27 0 25 -25 35 -54 20 -19 -11 -31 -8 -80 15 -31 15 -61 35 -67 45 -5 11 -15 19 -23 19 -7 0 -41 20 -77 45 -35 25 -71 45 -80 45 -8 0 -26 12 -40 26 -13 15 -48 38 -78 53 -93 45 -92 44 -86 68 6 26 -48 83 -80 83 -23 0 -59 23 -97 63 -15 15 -32 27 -38 27 -6 0 -10 10 -8 23 4 27 -52 87 -82 87 -11 0 -25 9 -32 20 -7 11 -18 20 -24 20 -7 0 -19 11 -28 25 -17 25 -27 30 -39 18z"/> <path d="M3765 980 c-10 -11 -13 -20 -8 -20 13 0 38 29 31 35 -3 3 -13 -4 -23 -15z"/> <path d="M2750 964 c0 -9 32 -33 44 -34 5 0 1 9 -9 20 -18 20 -35 26 -35 14z"/> <path d="M4945 918 c11 -37 23 -44 42 -25 16 16 16 17 0 17 -10 0 -20 7 -23 15 -10 24 -26 17 -19 -7z"/> <path d="M866 863 c-4 -13 -11 -23 -16 -23 -4 0 -18 -21 -30 -47 -12 -27 -28 -60 -36 -75 -8 -14 -14 -38 -14 -51 0 -14 -4 -28 -9 -31 -5 -3 -12 -31 -16 -62 -3 -30 -13 -70 -20 -89 -13 -30 -19 -33 -69 -40 -84 -10 -169 -42 -251 -95 -36 -24 -35 -23 -110 -45 -94 -28 -245 -109 -254 -137 -2 -7 -12 -24 -22 -37 -20 -25 -26 -81 -9 -81 6 0 10 4 10 8 0 14 48 32 65 25 25 -9 11 -28 -23 -31 -18 -2 -32 -8 -32 -14 0 -7 32 -8 103 -3 56 4 104 8 106 10 11 12 -17 25 -53 25 -44 0 -74 19 -61 40 3 5 19 10 36 10 18 0 37 9 50 25 12 13 36 27 53 31 17 3 39 13 48 21 9 8 30 13 50 11 26 -2 33 1 32 15 -2 14 7 17 43 17 27 0 51 6 60 16 23 22 42 1 25 -27 -7 -11 -10 -29 -7 -39 3 -10 1 -21 -5 -25 -5 -3 -10 1 -10 9 0 9 -5 16 -11 16 -8 0 -10 -13 -6 -37 5 -27 1 -45 -14 -70 -22 -35 -20 -83 4 -83 13 0 48 52 57 85 9 32 38 31 42 -2 l3 -28 17 30 c9 17 19 69 23 118 5 62 13 94 26 111 11 13 17 30 14 38 -2 7 8 28 23 46 23 28 29 31 44 20 15 -11 17 -21 9 -66 -9 -58 7 -153 27 -160 16 -5 27 27 14 40 -13 13 -4 70 12 80 34 23 59 -11 31 -42 -19 -21 -13 -40 15 -40 22 0 29 42 36 241 5 122 4 137 -12 143 -9 3 -23 1 -30 -5 -11 -9 -14 -8 -14 1 0 7 11 21 25 32 19 15 25 29 25 58 0 22 5 62 11 89 6 28 9 61 7 73 l-4 23 -8 -22z"/> <path d="M2096 851 c-9 -14 5 -42 18 -38 15 5 14 39 -1 44 -6 2 -14 0 -17 -6z"/> <path d="M3973 801 c-49 -47 -138 -91 -183 -91 -11 0 -24 -8 -29 -19 -6 -10 -25 -24 -43 -31 -18 -6 -53 -20 -78 -30 -66 -27 -161 -38 -388 -46 -111 -4 -205 -11 -208 -16 -3 -5 -11 -4 -18 1 -7 6 -71 13 -141 16 -133 5 -267 26 -321 50 -16 8 -49 17 -71 21 -25 4 -50 16 -62 30 -12 13 -29 24 -40 24 -21 0 -79 25 -131 56 -34 21 -100 39 -100 28 0 -16 85 -84 105 -84 12 0 28 -7 35 -15 7 -8 18 -15 25 -15 8 0 26 -11 42 -24 29 -24 138 -66 172 -66 10 0 35 -7 54 -15 20 -8 61 -15 92 -15 31 0 69 -7 86 -15 19 -10 53 -15 97 -14 38 1 78 -4 91 -10 12 -7 30 -9 39 -5 23 10 165 13 177 3 6 -4 30 -3 55 1 25 5 61 6 81 3 24 -3 47 1 69 12 27 14 50 16 113 12 74 -5 84 -3 161 29 44 20 85 39 91 45 5 5 19 9 31 9 13 0 30 7 39 16 20 21 81 63 109 75 80 37 138 104 108 123 -5 3 -31 -17 -59 -43z"/> <path d="M4866 801 c-10 -11 -16 -25 -14 -31 4 -14 48 17 48 36 0 20 -14 18 -34 -5z"/> <path d="M5520 799 c0 -11 9 -33 19 -48 35 -49 54 -107 42 -129 -8 -16 -5 -40 13 -104 13 -46 27 -99 30 -119 9 -51 29 -66 53 -41 10 10 26 22 36 25 14 5 16 11 7 27 -10 18 -8 20 19 20 16 0 33 5 37 11 9 15 -14 29 -47 29 -14 0 -33 8 -41 18 -24 27 -58 108 -58 139 0 15 -11 48 -25 73 -13 25 -29 56 -35 70 -6 14 -19 31 -30 38 -18 11 -20 10 -20 -9z"/> <path d="M5120 710 c-8 -5 -25 -7 -36 -4 -20 5 -22 2 -22 -44 -1 -27 -8 -67 -16 -87 -9 -21 -16 -58 -16 -84 0 -29 -7 -57 -20 -76 -11 -16 -20 -43 -20 -58 0 -16 -11 -48 -25 -73 -14 -25 -25 -49 -25 -54 0 -5 -18 -47 -40 -94 -41 -86 -48 -120 -29 -132 13 -7 79 60 79 80 0 7 11 34 25 60 14 26 25 55 25 65 0 11 7 21 15 25 11 4 15 20 15 54 0 27 7 66 15 85 8 20 15 50 15 67 0 17 6 33 13 36 8 3 13 24 14 58 2 68 19 133 39 144 9 5 14 16 13 25 -3 12 -8 14 -19 7z"/> <path d="M5165 638 c-4 -9 -5 -31 -3 -50 l4 -33 12 40 c7 25 8 43 2 49 -6 6 -12 4 -15 -6z"/> <path d="M5494 589 c-8 -14 11 -33 25 -25 6 4 11 14 11 22 0 16 -26 19 -36 3z"/> <path d="M5263 505 c-2 -75 21 -75 24 0 2 39 -1 55 -10 55 -9 0 -13 -18 -14 -55z"/> <path d="M2095 540 c3 -5 21 -10 40 -10 19 0 37 5 40 10 4 6 -12 10 -40 10 -28 0 -44 -4 -40 -10z"/> <path d="M5133 535 c-8 -22 6 -33 17 -15 13 20 12 30 0 30 -6 0 -13 -7 -17 -15z"/> <path d="M1160 492 c0 -39 4 -53 13 -50 18 7 20 60 3 83 -14 19 -15 16 -16 -33z"/> <path d="M4013 456 c-4 -8 -16 -15 -26 -17 -22 -5 -24 -23 -2 -27 19 -4 55 25 55 45 0 17 -17 17 -27 -1z"/> <path d="M3827 426 c-9 -9 -22 -16 -31 -16 -20 0 -31 -19 -17 -33 8 -8 19 -5 41 11 16 12 39 22 50 22 27 0 21 24 -7 28 -11 2 -27 -4 -36 -12z"/> <path d="M5775 416 c-24 -10 -29 -18 -30 -49 -2 -29 3 -38 19 -43 20 -7 190 -16 270 -14 32 1 37 -2 32 -16 -7 -19 10 -44 30 -44 8 0 14 7 14 15 0 8 6 15 14 15 7 0 30 -7 49 -15 20 -8 47 -15 59 -15 13 0 46 -12 73 -25 28 -14 60 -25 71 -25 12 0 27 -7 34 -15 7 -8 25 -15 41 -15 19 0 29 5 29 15 0 9 -9 15 -24 15 -13 0 -29 7 -36 15 -7 8 -22 15 -34 15 -11 0 -30 7 -40 15 -11 8 -30 15 -42 15 -12 0 -27 7 -34 15 -7 8 -21 15 -32 15 -23 0 -119 32 -190 63 -29 13 -82 29 -117 36 -35 7 -70 19 -78 27 -17 17 -38 17 -78 0z"/> <path d="M2406 371 c-7 -11 31 -22 51 -14 12 5 12 7 1 14 -17 11 -45 11 -52 0z"/> <path d="M3624 345 c-18 -14 -17 -14 13 -15 39 0 65 9 57 21 -8 14 -48 11 -70 -6z"/> <path d="M3820 330 c0 -5 9 -10 19 -10 11 0 23 5 26 10 4 6 -5 10 -19 10 -14 0 -26 -4 -26 -10z"/> <path d="M5626 311 c-15 -16 -16 -28 -10 -63 4 -24 7 -89 5 -145 l-2 -103 80 0 c90 0 89 -2 66 74 -8 26 -12 53 -9 58 3 5 3 31 -1 59 -6 42 -14 57 -53 94 -25 25 -49 45 -52 45 -4 0 -15 -9 -24 -19z"/> <path d="M5115 291 c-3 -10 -15 -21 -25 -24 -11 -3 -20 -11 -20 -19 0 -10 18 -12 81 -10 l81 4 -23 24 c-12 13 -30 24 -40 24 -10 0 -21 5 -24 10 -10 16 -23 12 -30 -9z"/> <path d="M1350 225 c0 -8 5 -15 10 -15 6 0 10 7 10 15 0 8 -4 15 -10 15 -5 0 -10 -7 -10 -15z"/> <path d="M5242 223 c2 -9 9 -18 16 -21 18 -6 15 25 -4 32 -11 4 -14 1 -12 -11z"/> <path d="M825 190 c-4 -14 -15 -20 -34 -20 -16 0 -33 -6 -38 -12 -11 -14 -23 -125 -16 -145 3 -9 28 -13 75 -13 62 0 69 2 58 15 -9 11 -11 38 -7 94 4 53 2 82 -5 89 -17 17 -26 15 -33 -8z"/> <path d="M6059 186 c-3 -3 -35 -10 -71 -16 -37 -5 -83 -20 -102 -31 -31 -18 -34 -23 -25 -45 5 -14 9 -36 9 -49 0 -29 17 -36 80 -28 34 4 50 2 50 -6 0 -7 18 -10 48 -9 40 1 42 2 12 5 -19 3 -38 11 -43 18 -4 8 -24 17 -45 20 -62 11 -72 16 -72 35 0 23 33 35 59 21 22 -12 64 -15 74 -4 4 3 1 13 -5 21 -10 11 -8 13 12 10 14 -2 24 -9 22 -17 -4 -21 30 -42 47 -28 10 9 19 4 40 -21 23 -28 32 -32 74 -32 35 0 47 -4 47 -15 0 -8 9 -15 20 -15 24 0 26 13 5 30 -18 15 -20 47 -2 53 22 7 37 -4 37 -29 0 -33 45 -34 53 -2 l6 22 24 -22 c13 -12 33 -22 45 -22 18 0 22 6 22 35 0 28 -4 35 -20 35 -11 0 -20 7 -20 15 0 8 -6 15 -14 15 -8 0 -21 6 -28 13 -28 28 -81 38 -169 31 -60 -5 -88 -3 -93 5 -7 10 -68 16 -77 7z"/> <path d="M1375 170 c-4 -6 0 -22 9 -35 9 -13 16 -34 16 -45 0 -28 50 -90 73 -90 17 0 17 2 -3 36 -13 19 -33 57 -46 84 -25 52 -39 66 -49 50z"/> <path d="M1550 111 c0 -24 18 -37 32 -23 8 8 7 16 -2 27 -17 21 -30 19 -30 -4z"/> <path d="M5056 72 c-3 -5 -3 -24 0 -41 6 -26 11 -31 35 -31 22 0 29 5 29 20 0 26 26 26 33 0 4 -16 14 -20 46 -20 47 0 50 8 18 45 -19 23 -33 28 -88 32 -40 3 -69 1 -73 -5z"/> <path d="M365 40 c-3 -5 -4 -10 -1 -10 2 0 11 -3 20 -6 11 -4 16 -1 16 10 0 18 -25 22 -35 6z"/> <path d="M2335 40 c-8 -13 15 -24 27 -12 6 6 4 11 -6 15 -8 3 -18 2 -21 -3z"/> </g> </svg> 