<?xml version="1.0" standalone="no"?>
<!DOCTYPE svg PUBLIC "-//W3C//DTD SVG 20010904//EN"
 "http://www.w3.org/TR/2001/REC-SVG-20010904/DTD/svg10.dtd">
<svg version="1.0" xmlns="http://www.w3.org/2000/svg"
 width="612.000000pt" height="408.000000pt" viewBox="0 0 612.000000 408.000000"
 preserveAspectRatio="xMidYMid meet">
<metadata>
Created by potrace 1.16, written by Peter Selinger 2001-2019
</metadata>
<g transform="translate(0.000000,408.000000) scale(0.100000,-0.100000)"
fill="#000000" stroke="none">
<path d="M3150 4055 c0 -28 -18 -32 -53 -13 -12 6 -32 12 -45 13 -20 1 -21 -1
-8 -11 22 -16 20 -23 -6 -16 -14 3 -19 2 -14 -6 4 -7 2 -12 -4 -12 -6 0 -8 -5
-4 -12 5 -7 3 -8 -6 -3 -7 4 -15 2 -20 -4 -6 -10 -25 -15 -78 -20 -7 0 -12 -9
-10 -18 2 -12 -6 -19 -27 -24 -16 -4 -25 -7 -18 -8 7 0 10 -7 7 -15 -3 -8 -13
-12 -26 -8 -16 4 -20 2 -15 -10 7 -20 -30 -38 -66 -31 -17 4 -27 1 -27 -7 0
-7 7 -10 15 -7 8 4 17 2 20 -3 3 -5 -15 -15 -39 -21 -25 -6 -43 -15 -40 -20 2
-5 -4 -16 -16 -26 -11 -10 -20 -21 -20 -26 0 -5 -18 -25 -40 -46 -22 -20 -40
-42 -40 -48 0 -6 -18 -24 -40 -41 -22 -16 -37 -31 -35 -34 3 -3 -1 -11 -10
-18 -8 -7 -15 -22 -15 -34 0 -13 -11 -33 -25 -46 -13 -12 -22 -26 -20 -30 2
-4 -6 -18 -18 -31 -12 -13 -21 -26 -19 -29 3 -7 -30 -71 -46 -88 -9 -10 -10
-18 -2 -27 7 -9 6 -16 -5 -25 -8 -7 -15 -20 -15 -30 0 -10 -7 -33 -15 -53 -14
-35 -18 -216 -4 -227 4 -3 9 -34 12 -70 5 -70 28 -137 61 -185 21 -30 25 -78
17 -210 -1 -22 0 -51 3 -65 9 -40 25 -132 30 -175 3 -22 12 -65 21 -95 8 -30
15 -69 15 -86 0 -17 9 -57 19 -90 10 -32 22 -81 26 -109 9 -67 40 -157 81
-230 36 -65 36 -67 -9 -135 -11 -17 -13 -30 -7 -40 5 -8 10 -40 10 -71 0 -31
11 -91 24 -135 13 -43 29 -119 35 -169 11 -84 30 -365 28 -410 0 -11 0 -39 1
-62 2 -35 5 -41 20 -37 16 5 16 5 0 -9 -10 -8 -18 -21 -18 -30 0 -9 -3 -18 -8
-21 -14 -8 -77 10 -75 22 4 16 -55 45 -74 38 -32 -13 -45 14 -38 80 5 39 3 64
-3 68 -12 7 -28 -57 -18 -73 4 -5 1 -13 -5 -16 -5 -4 -8 -13 -5 -21 3 -7 1
-16 -3 -18 -13 -8 -23 106 -11 118 5 5 10 21 10 35 0 23 1 24 20 6 19 -18 20
-17 20 3 0 12 -8 26 -17 31 -14 8 -15 11 -3 11 9 0 6 6 -9 14 -24 13 -24 14
-3 20 25 8 26 47 0 54 -24 6 -24 48 0 54 17 5 18 15 16 104 -2 68 2 119 14
164 l16 65 8 -40 c4 -22 7 -74 7 -116 1 -42 4 -97 7 -122 6 -41 9 -46 30 -45
22 2 23 4 17 88 -3 47 -6 132 -7 189 -1 74 -5 106 -14 109 -6 2 -9 9 -5 15 12
19 15 59 4 53 -9 -6 -24 -45 -35 -96 -4 -19 -12 -25 -33 -26 -31 -2 -158 -61
-217 -102 -22 -16 -48 -47 -63 -77 -14 -27 -32 -58 -41 -67 -14 -16 -14 -18 1
-18 20 0 33 -56 17 -75 -6 -8 -11 -27 -9 -42 1 -15 0 -35 -3 -43 -3 -8 -11
-42 -17 -75 -9 -51 -9 -62 4 -71 13 -10 13 -13 2 -17 -16 -6 -25 -44 -38 -162
-5 -44 -13 -105 -19 -135 -6 -30 -11 -99 -11 -153 -1 -53 -5 -100 -10 -103 -5
-3 -9 -34 -9 -70 l0 -64 38 0 c37 0 39 2 39 33 1 17 4 47 8 64 5 22 3 33 -4
33 -6 0 -11 9 -11 20 0 11 4 20 9 20 14 0 31 86 37 188 3 53 10 117 15 141 5
24 12 71 14 105 3 33 10 108 17 166 6 58 11 128 10 155 -2 74 21 115 66 115
21 0 29 -22 23 -67 -1 -7 2 -13 7 -13 5 0 16 21 24 47 11 35 21 49 37 51 19 3
21 -1 21 -55 0 -33 -5 -64 -11 -70 -5 -5 -11 -26 -11 -44 0 -19 -3 -38 -7 -44
-7 -12 -10 -36 -15 -120 -3 -33 -9 -103 -14 -155 -38 -361 -36 -332 -17 -346
15 -11 16 -16 5 -29 -8 -10 -9 -15 -1 -15 6 0 11 -7 11 -15 0 -8 -7 -15 -15
-15 -16 0 -16 -1 -19 -92 l-2 -58 35 0 36 0 2 72 c2 57 -1 74 -15 86 -9 7 -12
11 -5 8 6 -4 14 -2 18 4 3 5 -1 10 -9 10 -9 0 -16 4 -16 10 0 5 6 7 14 4 21
-8 36 77 38 221 1 72 7 127 14 138 9 14 13 15 17 4 3 -8 19 -17 37 -20 l31 -7
-6 -82 c-6 -80 -13 -225 -19 -376 l-3 -72 156 2 156 3 2 285 c1 157 2 296 3
310 l2 25 7 -25 c4 -15 14 -25 25 -25 9 0 21 -7 25 -15 8 -14 19 -241 24 -465
l2 -90 78 -3 c57 -2 77 0 78 10 0 7 0 97 -1 200 -1 180 0 188 18 188 38 0 62
-32 69 -90 7 -65 18 -90 39 -90 8 0 12 -4 9 -10 -3 -5 1 -10 10 -10 10 0 13 5
9 12 -4 7 -3 8 4 4 17 -10 -8 -46 -31 -46 -24 0 -32 -26 -17 -58 6 -15 11 -29
10 -32 0 -3 9 -8 22 -12 22 -6 21 -6 -4 -7 -55 -2 -25 -61 31 -61 16 0 21 6
21 29 0 16 -6 32 -12 34 -10 4 -10 6 0 6 19 1 16 101 -3 101 -18 0 -20 17 -3
22 7 3 11 25 10 62 -1 34 2 54 8 51 5 -3 7 1 4 9 -6 17 -47 46 -64 46 -6 0
-26 11 -43 24 -18 13 -49 31 -69 40 -21 8 -38 19 -38 24 0 5 -15 15 -32 22
-32 13 -84 62 -115 107 -8 12 -15 42 -16 67 -2 43 -3 44 -30 39 -27 -5 -27 -5
-16 21 7 14 18 26 26 26 7 0 13 9 13 21 0 12 5 19 13 16 7 -2 11 -18 10 -38
l-3 -34 20 24 20 23 0 -27 c0 -24 1 -25 16 -11 24 24 25 19 6 -21 -13 -27 -14
-37 -4 -40 6 -3 12 -13 12 -24 0 -11 7 -22 15 -25 8 -4 12 -10 9 -15 -3 -5 0
-9 6 -9 6 0 15 -11 20 -25 5 -14 15 -25 21 -25 8 0 8 4 2 13 -16 19 -22 69
-12 94 5 14 5 23 -1 23 -6 0 -10 9 -10 20 0 12 5 17 13 14 8 -3 13 3 13 15 0
11 -6 17 -13 14 -6 -3 -20 0 -30 7 -16 10 -16 10 4 5 19 -5 22 -3 16 11 -5 14
-2 16 20 12 24 -5 27 -2 28 26 1 17 1 36 1 41 -1 6 14 18 32 27 26 12 43 14
72 8 22 -5 49 -7 61 -4 19 5 21 3 16 -18 -6 -21 -5 -22 11 -9 9 8 44 15 77 17
32 2 64 6 69 9 5 3 18 -5 29 -17 17 -17 21 -19 21 -6 0 20 57 35 73 19 7 -7 5
-12 -6 -17 -25 -9 -21 -23 6 -17 18 4 19 3 7 -6 -12 -9 -11 -11 8 -11 12 0 22
-6 22 -13 0 -13 39 -41 47 -33 3 2 16 1 28 -4 16 -6 25 -5 28 3 3 8 7 7 11 -4
4 -10 -5 -39 -23 -73 -17 -31 -27 -56 -22 -56 5 0 11 5 13 11 2 7 9 5 17 -5
11 -13 10 -17 -13 -26 -14 -5 -26 -14 -26 -20 0 -5 -12 -7 -29 -4 -42 9 -69
-10 -77 -54 -4 -20 -14 -48 -23 -62 -24 -38 -75 -105 -83 -108 -5 -2 -8 -11
-8 -20 0 -10 -12 -37 -26 -62 -22 -38 -27 -62 -33 -152 l-6 -108 79 0 c67 0
77 2 72 16 -3 9 -6 37 -6 64 l0 48 -37 -14 c-35 -12 -39 -11 -55 9 -10 12 -18
34 -18 48 0 26 27 59 48 59 16 0 15 17 0 23 -7 2 -10 7 -7 11 11 12 39 -6 39
-24 0 -11 4 -22 10 -25 5 -3 14 -20 19 -38 8 -27 9 -20 10 43 2 113 22 189 67
259 39 60 49 67 71 53 9 -5 6 -26 -13 -82 -13 -41 -23 -95 -23 -120 1 -25 3
-37 6 -28 2 10 9 18 15 18 8 0 9 -27 3 -88 -4 -48 -9 -120 -11 -159 -2 -63 0
-73 14 -73 15 0 17 13 17 97 0 194 16 385 36 425 10 20 16 43 13 51 -3 8 6 27
20 43 24 28 25 28 26 7 0 -12 -9 -46 -21 -75 -19 -50 -20 -65 -14 -263 4 -115
7 -227 6 -247 -1 -38 -1 -38 37 -38 l39 0 -5 73 c-3 50 -10 76 -21 84 -9 6
-13 15 -8 19 4 4 7 2 7 -4 0 -7 4 -12 9 -12 4 0 8 108 9 239 0 228 1 241 21
262 11 12 25 46 31 75 8 37 18 58 32 65 19 10 20 9 13 -12 -5 -13 -10 -73 -11
-134 -2 -60 -4 -122 -7 -136 -2 -14 1 -61 6 -105 9 -84 12 -146 15 -311 l2
-103 163 0 164 0 -9 53 c-22 135 -34 276 -28 322 4 28 9 46 10 40 2 -5 6 17
10 50 7 68 12 60 30 -40 7 -38 16 -77 21 -86 4 -9 11 -43 14 -75 4 -33 9 -77
12 -99 2 -22 7 -68 10 -102 l5 -63 84 0 84 0 0 29 c0 17 -4 32 -8 35 -4 2 -9
17 -10 33 -1 15 -7 60 -12 98 -6 39 -15 108 -20 155 -4 47 -17 126 -29 175
-11 50 -23 112 -26 139 -9 70 -21 97 -40 90 -17 -7 -21 -59 -5 -69 14 -9 12
-43 -2 -48 -10 -3 -10 -8 1 -21 11 -13 11 -20 3 -28 -15 -15 -15 -51 0 -66 9
-9 9 -15 1 -23 -14 -14 -78 20 -78 42 -1 34 -45 58 -45 24 0 -8 -3 -15 -7 -15
-15 0 -73 58 -73 72 0 8 -16 29 -35 48 -19 19 -35 38 -35 44 0 5 14 -3 31 -20
l30 -29 0 90 c-2 207 10 554 20 613 13 69 5 101 -38 159 -29 40 -29 56 2 117
13 26 38 94 55 150 17 55 40 121 50 146 10 25 23 79 29 121 6 42 17 96 25 120
8 24 18 66 22 94 4 27 14 65 22 85 10 22 16 72 17 140 1 79 6 114 20 143 10
20 22 37 27 37 4 0 8 6 8 14 0 7 9 16 21 19 16 4 19 11 14 26 -3 12 -3 26 1
33 12 19 17 81 18 203 1 122 -7 189 -24 210 -8 9 -8 15 0 20 8 5 8 11 -1 21
-6 7 -8 21 -5 30 4 9 2 22 -4 29 -5 6 -8 27 -6 44 2 22 -1 34 -10 38 -12 4
-12 8 -2 21 11 13 10 15 -6 9 -17 -7 -17 -6 -5 9 9 11 10 19 3 21 -11 4 -10
46 2 78 7 19 7 19 -13 2 -16 -14 -22 -15 -25 -5 -4 10 -8 11 -20 0 -16 -12
-32 -3 -39 23 -6 23 -36 64 -43 58 -4 -4 -4 0 0 10 4 11 1 17 -9 17 -8 0 -20
14 -26 30 -5 17 -7 30 -4 30 3 0 0 7 -7 15 -7 9 -18 14 -24 12 -18 -6 -36 19
-36 50 0 21 -3 24 -10 13 -8 -12 -10 -12 -16 3 -4 11 -13 16 -24 12 -10 -3
-22 0 -27 7 -8 13 -9 18 -12 38 0 6 -10 10 -20 10 -26 0 -36 17 -21 35 10 12
9 15 -5 15 -11 0 -15 5 -11 15 4 10 -1 15 -14 15 -13 0 -20 7 -20 20 0 14 -5
18 -17 13 -11 -4 -14 -3 -9 5 4 7 1 15 -8 18 -9 3 -13 10 -10 15 3 5 2 9 -3
10 -4 0 -16 2 -25 4 -11 2 -18 -3 -18 -12 0 -12 -3 -13 -13 -4 -8 6 -17 8 -21
4 -4 -4 -4 1 0 12 6 15 4 17 -9 12 -9 -3 -17 -2 -17 3 0 5 -6 7 -14 4 -11 -4
-13 0 -9 18 3 16 2 19 -5 10 -7 -11 -14 -8 -30 12 -14 18 -22 22 -25 14 -4 -9
-8 -9 -14 -3 -10 12 -53 15 -53 4 0 -5 -7 -9 -15 -9 -8 0 -15 5 -15 10 0 6 -7
10 -15 10 -8 0 -15 -4 -15 -10 0 -5 -5 -10 -11 -10 -5 0 -8 3 -5 8 9 14 -148
9 -163 -5 -11 -12 -17 -11 -34 4 -11 10 -17 12 -13 6 8 -15 -10 -18 -19 -3 -3
6 -15 10 -26 10 -10 0 -19 -4 -19 -10 0 -5 -13 -10 -29 -10 -17 0 -33 5 -36
10 -11 18 -25 10 -25 -15z m424 -908 c-4 -12 -2 -17 4 -13 14 8 32 -25 32 -58
0 -29 -9 -33 -30 -13 -9 7 -7 2 3 -15 20 -31 34 -123 18 -113 -7 3 -8 0 -5 -9
8 -20 24 -21 24 -1 0 23 22 65 31 59 5 -3 9 -21 9 -40 0 -31 3 -35 23 -32 25
3 86 -47 65 -54 -8 -3 -6 -20 6 -56 10 -28 15 -56 12 -61 -4 -5 0 -12 6 -14
12 -5 -53 -11 -79 -8 -7 1 -13 -2 -13 -6 0 -5 -8 -9 -18 -10 -54 -4 -151 -27
-175 -41 -16 -10 -38 -32 -49 -51 -19 -30 -22 -32 -28 -15 -6 16 -8 15 -13 -8
-11 -42 -120 -63 -177 -33 -17 9 -30 22 -30 29 0 14 -70 76 -85 76 -5 0 -22
11 -39 24 -26 19 -48 25 -120 30 -51 3 -93 11 -97 17 -7 11 -36 9 -71 -6 -14
-5 -16 -2 -14 20 2 14 8 31 14 37 7 7 12 19 12 28 0 22 29 47 59 52 32 4 38
24 10 31 -16 4 -20 9 -12 19 5 7 10 23 11 36 1 28 19 52 37 52 8 0 32 18 54
39 23 22 56 43 73 46 18 4 49 15 68 25 45 23 94 17 80 -10 -15 -28 -12 -35 8
-17 9 10 33 33 54 52 20 19 42 35 48 35 7 0 -1 -14 -19 -30 -23 -22 -30 -36
-26 -53 9 -33 9 -60 0 -82 -5 -11 11 -1 37 25 64 64 96 89 135 105 44 18 51
14 46 -27 -3 -25 -2 -29 6 -18 6 8 11 23 11 32 0 9 13 26 30 38 19 14 28 16
24 7 -2 -7 3 -20 12 -28 15 -12 16 -12 10 8 -10 31 1 48 20 32 9 -7 12 -20 8
-32z m-254 -711 c0 -8 4 -16 9 -18 16 -5 17 -73 2 -97 -5 -7 -23 -14 -42 -16
-18 -1 -35 -8 -37 -14 -3 -9 6 -10 30 -6 25 5 38 2 47 -9 8 -9 20 -16 27 -16
8 0 13 -3 12 -7 -5 -20 39 -72 65 -77 20 -4 32 -16 43 -42 8 -20 13 -38 11
-40 -2 -2 -27 3 -57 12 -41 12 -55 13 -60 3 -13 -20 -105 -23 -154 -5 -33 13
-50 14 -70 6 -61 -23 -63 30 -3 87 23 23 49 49 57 59 13 16 13 17 -4 11 -16
-7 -18 -4 -12 25 3 17 12 39 20 47 7 9 17 27 21 41 14 48 34 70 65 70 19 0 30
-5 30 -14z m-233 -38 c-1 -18 3 -23 22 -23 31 0 36 -15 21 -59 -18 -55 -72
-71 -244 -71 -103 0 -140 3 -144 13 -2 6 -9 12 -17 12 -24 0 -34 24 -20 44 12
16 18 17 49 6 34 -11 38 -10 65 18 26 25 39 30 108 35 54 5 86 13 103 26 35
28 60 27 57 -1z m457 -3 c8 -8 21 -15 28 -15 8 0 18 -4 24 -10 5 -5 51 -14
103 -20 90 -10 124 -19 122 -33 -3 -21 1 -27 18 -24 31 5 50 27 62 69 5 22 13
38 16 35 10 -11 -42 -147 -57 -147 -3 0 -41 -3 -85 -7 -172 -14 -319 -5 -284
18 7 5 9 9 3 9 -25 0 -64 49 -64 80 0 35 15 39 39 8 16 -19 20 -20 39 -7 15
11 18 19 11 29 -19 31 -2 42 25 15z m-696 -180 c81 0 171 3 201 7 60 8 56 18
30 -83 -15 -61 -6 -95 34 -119 46 -28 71 -26 65 4 -4 20 0 25 24 30 17 3 42
-1 63 -11 31 -15 36 -15 60 1 18 12 36 15 60 10 23 -4 35 -2 35 5 0 6 9 11 20
11 11 0 20 -5 20 -11 0 -6 -6 -9 -14 -6 -15 6 -44 -23 -65 -65 -12 -23 -11
-29 5 -52 19 -26 34 -33 34 -17 0 5 9 13 20 16 11 3 20 14 20 24 0 10 11 30
24 46 35 41 42 113 16 167 -11 23 -20 45 -20 48 0 4 24 3 53 -2 124 -20 377
-5 377 24 0 9 34 11 43 2 7 -8 -13 -46 -31 -57 -11 -7 -10 -13 2 -32 19 -28
20 -35 6 -35 -5 0 -10 7 -10 15 0 8 -6 15 -14 15 -8 0 -21 3 -30 6 -12 5 -16
0 -16 -19 0 -38 10 -57 31 -57 12 0 19 -7 18 -17 0 -11 -3 -13 -6 -5 -2 6 -11
12 -19 12 -17 0 -19 -20 -1 -20 7 -1 4 -7 -7 -15 -10 -8 -23 -12 -27 -9 -5 3
-9 -2 -9 -10 0 -9 5 -16 12 -16 6 0 -2 -12 -18 -27 -35 -33 -64 -76 -64 -97 0
-7 -8 -24 -19 -37 l-18 -23 -7 22 c-4 12 -4 27 0 33 4 8 3 9 -5 5 -6 -4 -18 0
-27 8 -17 17 -35 13 -29 -7 15 -50 15 -69 1 -64 -10 4 -13 1 -10 -7 8 -21 -62
-31 -82 -11 -8 8 -22 15 -30 15 -8 0 -14 8 -14 18 0 13 -2 14 -9 3 -10 -15
-31 -10 -110 26 -46 22 -58 24 -89 15 -23 -7 -41 -8 -53 -2 -29 16 -52 12
-125 -25 -38 -19 -75 -35 -82 -35 -20 0 -116 -42 -124 -54 -5 -7 -8 -5 -8 5 0
20 -29 79 -38 79 -17 -1 -34 -19 -28 -29 4 -6 2 -11 -5 -11 -7 0 -23 -10 -36
-22 l-23 -21 0 20 c0 12 -3 30 -7 40 -7 17 -6 17 20 0 32 -21 35 -15 8 14 -11
12 -25 18 -31 14 -6 -4 -22 -4 -36 -1 -20 5 -25 13 -24 34 3 43 1 46 -20 27
-11 -10 -23 -15 -27 -12 -4 4 1 13 9 20 9 6 19 27 23 45 6 31 6 32 -28 32 -21
0 -37 6 -40 14 -4 9 0 12 13 9 31 -8 22 54 -10 70 -29 14 -38 57 -29 127 3 25
7 39 7 32 1 -7 7 -10 12 -7 6 4 7 11 4 17 -4 6 8 0 25 -13 31 -23 40 -24 179
-24z m512 -620 c62 -7 80 -13 105 -36 23 -22 30 -37 30 -66 0 -34 -3 -39 -30
-44 -17 -4 -26 -7 -21 -8 5 0 3 -8 -4 -16 -7 -9 -20 -13 -29 -11 -9 3 -34 6
-56 7 -22 2 -46 7 -53 13 -10 7 -17 5 -23 -7 -8 -13 -22 -17 -54 -15 -35 1
-42 4 -34 14 7 8 7 14 -1 19 -6 4 -17 -1 -24 -11 -13 -17 -42 -11 -31 7 10 16
-5 31 -19 20 -9 -8 -19 -4 -36 14 -21 22 -22 27 -10 56 9 22 10 33 2 38 -6 4
-1 11 14 18 14 6 26 7 30 2 3 -5 12 -3 19 5 16 15 90 15 225 1z m33 -439 c65
-2 121 -7 124 -10 4 -3 -1 -6 -11 -6 -9 0 -27 -7 -40 -15 -12 -8 -38 -15 -57
-14 -19 1 -65 -2 -103 -6 -56 -7 -68 -6 -61 5 6 10 3 12 -13 8 -29 -8 -119 20
-126 38 -5 14 5 15 81 9 49 -3 141 -8 206 -9z m-173 -136 c58 0 141 3 185 6
49 3 76 2 70 -4 -14 -13 -118 -32 -173 -32 -30 0 -42 -4 -40 -12 3 -7 11 -13
19 -14 67 -5 66 -3 19 -28 -30 -15 -49 -20 -57 -14 -7 5 -25 8 -40 7 -15 -2
-33 0 -39 4 -6 3 -37 8 -68 9 -35 1 -56 7 -56 14 0 7 -7 14 -15 18 -8 3 -15
12 -15 21 0 8 -4 15 -10 15 -5 0 -10 5 -10 10 0 7 23 8 63 5 34 -4 109 -6 167
-5z"/>
<path d="M4259 1176 c-52 -17 -48 -39 8 -55 26 -8 53 -18 60 -23 17 -14 69 -6
65 10 -1 8 2 11 10 6 6 -4 43 -8 82 -10 39 -1 100 -7 136 -12 36 -6 66 -9 68
-7 8 8 -59 35 -87 35 -17 0 -54 9 -82 20 -29 12 -58 19 -66 16 -8 -3 -25 1
-38 10 -30 19 -111 25 -156 10z"/>
<path d="M2190 1160 c-8 -6 -38 -17 -66 -25 -31 -10 -77 -36 -115 -67 -67 -53
-84 -77 -65 -91 6 -5 0 -5 -13 -2 -15 5 -21 3 -17 -3 3 -6 -2 -13 -11 -15 -14
-4 -13 -5 4 -6 20 -1 21 -4 13 -27 -6 -14 -8 -36 -6 -49 2 -13 1 -26 -2 -30
-4 -4 -8 -16 -9 -28 -1 -12 -7 -67 -13 -122 -6 -55 -12 -122 -15 -150 -2 -27
-11 -113 -19 -190 -8 -77 -15 -157 -14 -178 0 -20 -3 -69 -7 -107 l-7 -70 65
0 65 0 11 82 c7 46 16 112 22 148 5 36 14 126 20 200 13 164 24 274 38 360 6
36 14 93 17 127 7 59 6 63 -17 72 -23 9 -23 10 -2 10 25 1 73 54 73 81 0 10
15 28 34 39 19 12 39 28 46 36 14 17 11 19 -10 5z"/>
<path d="M4559 1059 c30 -12 26 -22 -6 -15 -26 6 -26 5 -10 -8 13 -10 15 -15
5 -18 -22 -8 10 -38 39 -38 23 0 25 3 20 29 l-6 30 47 -5 c26 -3 52 -10 59
-17 7 -7 15 -39 19 -72 4 -33 12 -73 19 -90 7 -16 16 -58 19 -93 3 -35 11 -72
16 -83 6 -11 13 -36 16 -57 8 -67 24 -146 40 -202 9 -30 20 -84 24 -120 8 -62
26 -199 36 -267 l5 -33 96 0 95 0 -5 43 c-4 23 -9 126 -13 228 -6 182 2 273
28 305 5 7 5 21 -1 35 -6 13 -15 49 -21 80 -6 31 -20 72 -30 92 -11 20 -20 45
-20 56 0 10 -9 30 -20 44 -11 14 -20 33 -20 44 0 10 -4 23 -8 29 -11 17 -51
36 -62 29 -6 -3 -10 -2 -10 4 0 9 -93 43 -108 39 -4 -1 -25 6 -47 16 -27 13
-68 19 -129 20 -53 2 -80 -1 -67 -5z"/>
<path d="M2304 935 c-3 -8 -3 -19 1 -24 3 -6 1 -19 -4 -29 -6 -10 -12 -61 -15
-113 -7 -131 -23 -312 -35 -389 -22 -144 -32 -380 -15 -380 7 0 12 18 13 43 1
23 3 60 6 82 2 22 9 103 15 180 14 179 18 218 25 247 3 12 8 64 11 113 3 50 7
113 9 140 2 28 5 59 5 70 1 10 6 25 12 32 12 14 4 43 -12 43 -6 0 -13 -7 -16
-15z"/>
<path d="M1764 915 c-16 -5 -48 -20 -72 -33 -23 -12 -47 -20 -52 -17 -5 3 -27
-12 -50 -33 -46 -45 -44 -34 -42 -293 2 -103 -2 -175 -11 -208 -13 -51 -13
-52 -25 -26 -7 15 -19 70 -28 123 -8 52 -17 99 -19 103 -3 4 1 26 8 50 8 24
12 71 11 103 -2 64 13 100 46 109 23 6 27 27 6 27 -30 0 -127 -142 -107 -155
5 -2 4 -23 -1 -45 -6 -22 -7 -48 -3 -57 5 -10 9 -20 10 -23 6 -19 19 -212 17
-239 -4 -37 41 -174 65 -203 8 -9 17 -35 20 -57 l6 -41 128 0 c125 0 129 1
133 23 3 12 7 164 11 337 5 289 11 396 30 524 l7 46 -30 -2 c-16 -1 -42 -7
-58 -13z"/>
<path d="M5058 904 c17 -14 32 -33 32 -41 0 -9 7 -24 15 -33 9 -10 18 -28 21
-41 4 -23 21 -464 20 -524 -1 -16 3 -84 9 -150 l10 -120 6 80 c6 85 23 151 56
225 39 86 46 119 38 184 -4 33 -9 90 -10 126 -2 61 -26 147 -53 198 -7 12 -31
30 -53 40 -21 9 -42 25 -45 35 -3 9 -18 24 -34 32 -44 23 -49 18 -12 -11z"/>
<path d="M1463 836 c-58 -36 -177 -145 -195 -180 -6 -11 -20 -27 -30 -35 -11
-7 -17 -19 -14 -27 3 -8 1 -14 -4 -14 -6 0 -10 -6 -10 -14 0 -8 -6 -16 -14
-19 -7 -3 -17 -18 -20 -34 -4 -15 -15 -39 -24 -53 -28 -43 -132 -259 -132
-276 0 -8 -7 -29 -16 -46 -9 -17 -24 -55 -34 -84 l-17 -54 33 0 c29 0 35 4 40
28 12 54 36 122 45 127 5 4 9 16 9 28 0 12 9 44 19 72 11 27 32 90 47 138 18
57 36 95 51 107 13 10 23 23 23 29 0 17 37 33 43 18 3 -8 7 -5 12 7 5 11 3 26
-3 37 -7 11 -8 20 -2 24 5 3 12 -11 16 -32 7 -36 7 -37 17 -13 5 14 13 33 18
43 5 10 7 22 4 27 -4 6 -1 10 6 10 6 0 18 8 26 18 7 9 13 13 12 7 -1 -5 0 -26
1 -45 l2 -35 13 35 c7 19 14 46 14 60 1 29 38 89 89 143 43 44 42 45 -25 3z"/>
<path d="M4643 812 c-22 -22 -22 -24 -8 -85 8 -34 15 -98 15 -142 1 -97 17
-227 29 -234 5 -3 11 -15 14 -26 4 -17 5 -17 6 4 1 15 6 21 14 18 8 -3 20 -2
27 3 10 6 9 25 -9 94 -11 47 -21 100 -21 119 0 18 -4 37 -10 43 -5 5 -12 46
-16 89 -3 44 -8 94 -12 110 l-7 30 -22 -23z"/>
<path d="M4425 760 c-11 -4 -26 -5 -32 -3 -27 10 1 -102 30 -122 12 -8 16 -15
9 -15 -18 0 -14 -18 6 -23 16 -4 16 -5 0 -6 -22 -1 -22 3 3 -122 24 -116 34
-143 52 -132 7 4 14 8 17 8 3 0 13 5 23 11 16 9 16 15 -5 114 -11 58 -29 119
-39 137 -10 18 -15 33 -10 33 11 0 -9 102 -23 116 -6 7 -19 9 -31 4z"/>
<path d="M5318 655 c-2 -3 -1 -28 3 -57 4 -29 8 -80 8 -113 1 -74 -32 -279
-53 -330 -18 -42 -21 -68 -6 -45 18 28 12 -15 -10 -64 l-19 -46 42 2 c23 1 36
3 29 6 -16 5 -15 33 1 57 8 11 19 43 26 70 7 28 20 66 29 85 21 43 22 261 2
285 -10 12 -10 15 2 15 21 0 8 68 -21 109 -24 33 -25 34 -33 26z"/>
<path d="M3005 610 c-3 -5 13 -19 35 -32 40 -23 58 -48 20 -28 -24 13 -26 0
-9 -48 10 -29 59 -59 73 -45 3 3 8 -2 12 -11 3 -9 11 -16 16 -16 6 0 30 -13
55 -30 24 -16 52 -30 62 -30 10 0 30 -10 45 -21 19 -15 31 -18 38 -11 14 14 0
52 -19 52 -9 0 -13 6 -9 15 4 10 -1 15 -15 15 -11 0 -18 4 -15 9 3 5 -2 15
-11 22 -14 12 -16 12 -8 -1 6 -11 3 -10 -12 3 -11 9 -25 17 -31 17 -6 0 -17 6
-24 14 -8 7 -28 21 -46 30 -17 9 -46 31 -64 49 -37 37 -84 61 -93 47z"/>
<path d="M5533 491 c-1 -11 8 -30 21 -44 12 -13 20 -29 18 -35 -1 -5 11 -24
27 -41 28 -28 35 -42 33 -62 -1 -4 21 -50 47 -103 52 -102 50 -116 -4 -32 -19
28 -46 65 -60 81 l-26 30 7 -30 c13 -58 21 -105 18 -105 -2 0 -13 18 -24 40
-12 23 -32 50 -45 62 -14 12 -25 29 -25 37 0 15 -71 101 -82 101 -3 0 -8 -14
-10 -32 -6 -40 9 -97 26 -104 8 -3 21 -23 31 -45 10 -21 21 -39 25 -39 5 0 10
-10 13 -22 4 -13 13 -32 22 -43 15 -19 15 -17 10 30 l-7 50 31 -53 c19 -30 32
-69 34 -92 1 -26 7 -40 16 -40 8 0 11 6 7 17 -4 9 -9 38 -12 63 l-6 45 31 -50
c40 -65 55 -75 118 -75 47 0 53 2 53 20 0 30 -27 78 -51 91 -11 6 -32 36 -45
67 -50 114 -144 285 -173 315 -16 16 -17 16 -18 -2z"/>
<path d="M1259 358 c-57 -60 -137 -255 -139 -341 0 -27 17 -11 23 22 3 16 13
36 22 45 9 9 16 26 17 38 1 55 51 138 83 138 8 0 15 5 15 11 0 24 18 -4 30
-46 12 -44 12 -47 -10 -62 -12 -9 -29 -32 -38 -52 l-15 -36 -8 33 c-10 49 -16
48 -24 -5 -4 -26 -13 -60 -21 -75 l-14 -27 115 0 c107 -1 115 0 107 17 -5 9
-17 49 -26 87 -10 39 -24 88 -31 110 -8 22 -19 70 -25 108 -7 37 -16 67 -21
67 -4 0 -22 -15 -40 -32z"/>
<path d="M4728 312 c-10 -2 -18 -10 -18 -17 0 -7 -4 -15 -9 -17 -16 -6 1 -60
20 -65 11 -3 19 -14 19 -25 0 -10 -4 -17 -9 -14 -19 12 -20 -25 -1 -44 11 -11
17 -20 13 -20 -5 0 -7 -13 -7 -30 4 -85 1 -80 39 -80 39 0 38 -4 15 87 -5 18
-6 41 -4 50 3 10 -4 28 -15 40 -22 23 -28 38 -11 28 6 -3 10 0 11 7 5 54 -18
105 -43 100z"/>
<path d="M5385 213 c-4 -16 -16 -50 -28 -77 -19 -43 -20 -49 -6 -60 8 -6 24
-26 34 -43 18 -30 24 -33 67 -33 26 0 48 2 48 4 0 2 -11 23 -25 48 -13 24 -27
62 -31 83 -8 51 -30 105 -43 105 -6 0 -13 -12 -16 -27z"/>
</g>
</svg>
