<?xml version="1.0" standalone="no"?>
<!DOCTYPE svg PUBLIC "-//W3C//DTD SVG 20010904//EN"
 "http://www.w3.org/TR/2001/REC-SVG-20010904/DTD/svg10.dtd">
<svg version="1.0" xmlns="http://www.w3.org/2000/svg"
 width="315.000000pt" height="356.000000pt" viewBox="0 0 315.000000 356.000000"
 preserveAspectRatio="xMidYMid meet">
<metadata>
Created by potrace 1.16, written by Peter Selinger 2001-2019
</metadata>
<g transform="translate(0.000000,356.000000) scale(0.100000,-0.100000)"
fill="#000000" stroke="none">
<path d="M1608 3407 c-57 -38 -103 -49 -171 -42 -60 6 -64 5 -122 -32 -33 -22
-66 -47 -74 -56 -7 -9 -19 -17 -25 -17 -21 0 -84 -73 -135 -157 -94 -155 -167
-334 -180 -443 -11 -87 4 -261 29 -342 11 -36 23 -110 26 -164 3 -55 10 -107
15 -116 5 -9 9 -46 9 -83 0 -36 4 -64 9 -61 5 3 8 -13 8 -37 -3 -126 40 -372
81 -469 29 -67 35 -113 19 -145 -25 -48 -29 -105 -13 -179 8 -38 19 -107 25
-154 11 -97 10 -82 16 -260 2 -74 6 -147 9 -161 6 -34 -14 -62 -37 -53 -21 8
-43 44 -27 44 17 0 11 56 -9 74 -22 20 -33 9 -31 -32 3 -42 1 -45 -15 -32 -12
10 -14 24 -9 60 4 30 2 50 -5 54 -7 5 -11 -6 -11 -34 0 -25 -4 -39 -10 -35
-15 9 -12 72 5 89 18 18 19 38 3 54 -8 8 -8 15 2 27 11 13 11 20 -1 41 -9 19
-10 30 -2 43 12 20 16 161 4 161 -5 0 -3 17 4 38 7 20 16 35 20 32 4 -3 9 -49
11 -103 1 -54 7 -104 12 -110 6 -7 8 -45 7 -85 -3 -53 0 -72 8 -69 12 4 12 33
3 362 -2 71 -6 89 -17 87 -8 -2 -15 -8 -17 -13 -2 -5 -9 -9 -15 -9 -7 0 -47
-24 -90 -52 -67 -45 -82 -61 -103 -107 -22 -47 -23 -56 -11 -75 10 -15 12 -28
5 -46 -5 -14 -7 -34 -4 -44 3 -11 0 -26 -5 -32 -7 -9 -7 -19 -1 -30 7 -13 6
-22 -5 -32 -10 -10 -12 -26 -7 -58 4 -28 2 -49 -5 -58 -7 -8 -14 -45 -16 -83
-3 -37 -9 -112 -16 -166 -6 -54 -7 -106 -3 -115 11 -24 13 -52 4 -52 -12 0
-21 -48 -14 -75 8 -33 40 -33 48 0 3 13 3 43 0 65 -4 22 -2 45 3 52 10 12 28
154 32 243 2 42 7 124 17 260 3 44 5 101 5 126 0 34 5 52 21 69 l22 23 9 -27
c11 -33 31 -29 35 7 2 15 9 27 16 27 16 0 19 -86 4 -117 -8 -16 -8 -26 0 -36
9 -10 9 -16 0 -25 -6 -6 -12 -39 -13 -74 -1 -35 -5 -71 -10 -81 -4 -10 -5 -46
-1 -79 3 -34 2 -66 -3 -72 -11 -13 -18 -211 -8 -245 4 -14 2 -30 -4 -38 -15
-17 -2 -103 15 -103 17 0 30 75 17 99 -12 21 -9 44 6 63 8 8 13 64 15 141 2
69 6 129 10 132 3 3 18 0 33 -7 25 -11 26 -15 19 -48 -4 -19 -8 -113 -9 -207
l-1 -173 97 0 c109 0 100 -9 98 90 0 25 0 54 1 65 1 11 3 63 3 115 0 57 5 98
11 103 8 6 7 10 -1 14 -14 5 -18 83 -5 83 28 -1 33 -21 35 -146 1 -71 6 -135
11 -142 4 -7 6 -36 5 -65 -2 -29 -2 -67 -1 -84 2 -33 2 -33 55 -33 l52 0 -3
62 c-2 35 -3 77 -3 93 1 17 1 58 0 92 0 35 4 63 9 63 18 0 42 -37 42 -66 1
-37 35 -112 43 -93 4 11 6 10 6 -2 1 -9 -6 -19 -14 -23 -11 -4 -14 -20 -12
-66 2 -55 4 -60 25 -60 19 0 21 4 16 24 -3 13 -1 27 5 30 14 9 14 53 0 61 -10
7 -4 102 7 114 2 2 12 -4 23 -13 12 -11 21 -14 26 -7 9 15 -3 31 -24 31 -10 0
-26 9 -36 20 -10 11 -22 20 -28 20 -5 0 -24 12 -42 28 -18 15 -49 41 -69 57
-52 43 -88 99 -91 140 -1 20 -10 41 -19 48 -16 12 -15 15 10 42 l27 30 -6 -27
c-6 -23 -4 -25 14 -21 20 6 21 3 17 -28 -4 -22 2 -50 18 -84 21 -44 24 -47 24
-22 0 42 24 28 31 -18 4 -24 15 -45 28 -55 13 -8 38 -28 57 -44 35 -29 101
-66 117 -66 5 0 7 10 4 21 -4 15 1 28 16 41 l22 20 -27 -16 c-34 -20 -42 -20
-34 0 3 8 2 12 -4 9 -6 -3 -10 -3 -10 2 0 4 -17 19 -37 33 -20 14 -60 49 -87
78 -27 28 -55 52 -61 52 -7 0 -12 18 -13 41 -1 22 -4 45 -7 49 -3 5 4 11 15
15 14 4 20 15 20 35 0 22 7 33 28 43 33 15 81 11 89 -9 4 -11 9 -11 26 -2 28
14 92 15 92 0 0 -22 16 -25 22 -4 7 28 43 30 43 2 0 -11 3 -20 8 -20 4 0 12
-10 17 -22 7 -17 17 -22 37 -20 19 2 28 -2 33 -18 9 -29 19 -18 35 39 10 37
19 51 31 51 10 0 25 10 33 22 9 12 19 19 22 15 4 -4 0 -15 -9 -25 -9 -10 -29
-42 -44 -72 -16 -30 -40 -73 -54 -95 -14 -22 -28 -48 -32 -58 -5 -13 -13 -16
-27 -12 -35 11 -58 -11 -70 -70 -6 -30 -15 -57 -20 -60 -13 -8 -37 -60 -45
-97 -4 -18 -14 -42 -21 -53 -14 -20 -19 -111 -8 -152 5 -19 13 -23 45 -23 39
0 39 0 39 40 0 39 -1 40 -22 29 -18 -10 -24 -8 -35 7 -17 23 -16 36 4 84 21
48 31 50 39 10 9 -43 20 -37 16 9 -2 21 1 42 7 45 6 4 11 25 11 47 0 24 12 63
31 101 38 76 56 67 34 -17 -19 -73 -19 -102 -1 -112 8 -4 16 -17 19 -28 5 -23
12 72 8 128 -1 21 2 44 7 50 5 7 12 21 14 32 3 11 6 -25 7 -80 2 -102 7 -254
9 -312 2 -25 7 -33 20 -33 15 0 18 8 18 49 -1 27 -4 52 -7 56 -4 3 -2 19 4 35
8 22 8 35 -2 52 -9 18 -9 31 -1 52 6 16 10 82 9 147 -1 93 2 123 15 141 9 12
17 32 17 43 1 11 6 2 11 -20 5 -22 8 -49 8 -60 -5 -83 -2 -216 6 -227 5 -7 9
-70 9 -140 l0 -128 100 0 101 0 -3 53 c-11 171 -12 248 -5 292 l8 50 13 -60
c7 -33 17 -67 21 -76 5 -8 11 -51 13 -95 2 -43 8 -87 12 -97 4 -9 4 -28 1 -42
-6 -24 -5 -25 49 -25 l56 0 -6 33 c-4 17 -8 59 -11 92 -12 166 -24 285 -35
330 -7 28 -13 61 -14 75 -3 69 -6 80 -19 80 -10 0 -13 -23 -11 -110 2 -60 -1
-110 -5 -110 -15 0 -40 38 -40 61 0 42 -16 54 -24 18 l-6 -33 -21 21 c-23 23
-65 108 -48 97 7 -4 10 22 10 73 -1 189 7 492 13 519 5 22 0 43 -19 77 -30 58
-31 82 -4 178 25 91 59 263 59 305 0 17 14 73 30 123 22 67 29 103 25 129 -5
28 -4 33 4 22 9 -13 11 -12 12 5 10 167 19 232 43 310 36 120 43 226 22 335
-10 47 -22 99 -27 115 -6 17 -17 53 -24 80 -16 57 -84 203 -120 255 -81 117
-96 135 -147 174 -21 16 -38 34 -38 42 0 30 -102 88 -172 97 -38 5 -52 2 -80
-16z m107 -730 c0 -9 6 -22 13 -29 15 -15 15 -33 1 -56 -7 -12 -6 -28 5 -57 8
-22 15 -32 15 -22 1 10 6 15 11 12 6 -4 8 -15 5 -26 -5 -14 0 -20 19 -25 31
-7 38 -27 48 -129 3 -26 -1 -30 -24 -33 -16 -2 -28 -8 -28 -13 0 -5 -10 -9
-22 -9 -56 0 -98 -21 -125 -61 -30 -46 -68 -69 -113 -69 -24 0 -35 7 -51 34
-36 61 -98 103 -162 111 -32 4 -60 11 -63 16 -3 5 -16 6 -30 3 -13 -3 -24 -2
-24 2 0 25 35 94 50 99 14 4 17 14 13 48 -5 40 -2 45 42 89 60 60 130 96 156
80 16 -10 21 -9 31 8 20 31 23 24 19 -37 l-3 -58 50 49 c63 62 82 73 93 55 8
-13 13 -6 10 14 0 4 8 7 19 7 11 0 20 5 20 11 0 6 6 9 13 6 6 -2 12 -11 12
-20z m-167 -614 c5 -10 12 -35 16 -55 6 -32 4 -37 -16 -44 -13 -4 -26 -7 -30
-6 -5 1 -8 -2 -8 -7 0 -5 12 -11 26 -13 18 -2 32 -14 44 -35 23 -43 41 -64 50
-58 9 6 33 -45 25 -53 -3 -4 -21 -5 -40 -3 -18 1 -42 -2 -53 -8 -15 -8 -32 -6
-65 5 -35 12 -51 13 -66 4 -19 -9 -21 -8 -21 13 0 13 14 41 30 62 18 22 28 45
25 55 -3 9 6 48 20 86 14 38 25 70 25 71 0 11 31 -1 38 -14z m-152 -28 c-3 -9
0 -15 9 -15 21 0 27 -17 20 -50 -10 -44 -50 -61 -144 -61 -90 0 -131 14 -131
46 0 18 5 21 29 17 20 -3 35 2 49 16 11 11 40 22 68 26 27 4 58 13 68 21 25
19 40 19 32 0z m260 -44 c7 -8 34 21 28 30 -7 13 3 11 34 -5 15 -7 51 -17 81
-21 33 -4 61 -15 74 -28 19 -19 20 -19 34 -2 12 18 13 18 13 -1 0 -46 -19 -55
-131 -61 l-106 -6 -26 29 c-20 21 -27 39 -27 69 1 35 2 37 12 20 6 -11 12 -22
14 -24z m-471 -117 c45 -6 170 1 209 13 16 4 18 2 12 -18 -4 -13 -10 -49 -13
-80 -5 -53 -4 -57 24 -77 32 -22 43 -20 43 9 0 22 28 33 46 18 9 -7 24 -8 41
-3 26 7 54 6 61 -1 2 -2 -4 -17 -12 -33 -14 -27 -14 -34 -1 -59 8 -15 15 -22
15 -15 0 6 7 12 15 12 8 0 15 9 15 20 0 12 10 34 21 50 18 23 21 38 16 77 -3
26 -8 57 -12 69 -6 20 -4 21 120 20 120 -1 128 0 145 22 24 29 30 28 30 -7 0
-20 -8 -34 -25 -45 -22 -14 -25 -24 -25 -71 0 -30 -4 -55 -10 -55 -5 0 -10 -8
-10 -18 0 -10 -11 -33 -25 -52 -14 -19 -25 -44 -25 -57 0 -28 -10 -29 -33 -3
-25 30 -36 24 -30 -14 4 -27 1 -36 -18 -49 -19 -14 -25 -14 -38 -3 -9 7 -32
19 -51 26 -19 7 -43 20 -52 28 -10 9 -42 16 -75 17 -48 1 -66 -3 -106 -27 -26
-15 -53 -28 -61 -28 -7 0 -19 -6 -25 -14 -6 -8 -21 -16 -31 -19 -25 -6 -45 24
-28 41 8 8 7 13 -7 18 -11 5 -22 1 -30 -9 -7 -9 -15 -14 -18 -10 -4 3 -7 -4
-7 -16 0 -13 -4 -20 -11 -15 -6 3 -8 17 -5 30 5 20 3 24 -18 24 -31 0 -42 16
-24 37 10 13 10 17 1 20 -7 3 -13 16 -13 30 0 16 -7 27 -19 30 -16 4 -18 11
-14 37 3 22 0 38 -12 49 -12 13 -16 32 -14 82 2 64 3 65 20 46 10 -11 39 -23
64 -27z m403 -521 c23 -3 42 -10 42 -16 0 -5 6 -15 14 -21 8 -6 17 -26 21 -44
5 -26 3 -33 -12 -39 -10 -3 -21 -12 -25 -18 -6 -9 -21 -10 -54 -4 -29 6 -51 5
-58 -1 -14 -11 -57 -9 -50 2 3 4 -4 8 -15 8 -12 0 -21 4 -21 9 0 5 -9 12 -19
16 -21 6 -35 42 -20 51 5 3 9 14 9 24 0 10 5 22 12 26 22 14 73 23 103 18 17
-3 49 -7 73 -11z"/>
<path d="M718 914 c-32 -25 -58 -51 -58 -57 0 -6 -7 -19 -17 -29 -10 -11 -12
-18 -4 -18 7 0 9 -9 6 -22 -9 -36 -17 -129 -16 -177 0 -25 -3 -50 -8 -55 -10
-13 -26 -250 -26 -378 0 -47 -3 -90 -7 -94 -5 -4 -8 -18 -8 -31 0 -21 5 -23
44 -23 48 0 56 10 56 82 0 20 4 59 10 85 5 26 12 109 16 183 3 74 8 155 10
180 2 25 6 65 8 90 2 25 7 78 11 118 6 56 5 72 -5 72 -7 0 -1 9 14 21 14 11
26 30 26 41 0 12 7 30 17 40 33 36 -11 19 -69 -28z"/>
<path d="M2383 903 c-29 -4 -33 -8 -33 -34 0 -16 6 -32 14 -35 8 -3 12 -13 9
-25 -6 -23 22 -27 31 -4 3 8 1 15 -4 15 -6 0 -10 14 -10 30 0 28 2 30 28 24
42 -10 47 -18 50 -80 2 -32 8 -66 14 -77 5 -10 7 -29 4 -40 -3 -12 0 -40 6
-62 5 -22 12 -60 13 -85 2 -25 11 -83 20 -130 21 -109 34 -197 39 -285 3 -38
5 -73 5 -77 1 -5 34 -8 74 -7 39 0 66 3 60 6 -7 2 -13 20 -13 38 0 18 6 36 13
38 10 4 10 6 0 6 -18 1 -16 59 2 77 8 9 15 20 15 25 0 14 -20 11 -21 -3 0 -7
-5 0 -9 16 -5 16 -5 65 1 115 18 167 10 291 -23 327 -10 12 -16 28 -12 37 3 9
-3 29 -14 44 -10 15 -17 33 -15 40 4 12 -152 98 -191 105 -11 3 -36 3 -53 1z"/>
<path d="M540 785 c-8 -9 -35 -27 -61 -40 -25 -13 -49 -31 -53 -41 -4 -10 -12
-14 -23 -10 -9 4 -20 1 -25 -6 -13 -21 -9 -29 10 -19 15 8 17 4 14 -32 -2 -37
-2 -200 1 -282 0 -16 -3 -43 -7 -60 -7 -28 -9 -29 -21 -12 -8 11 -14 42 -14
70 0 29 -4 63 -9 77 l-10 25 -7 -28 c-4 -15 -4 -53 1 -85 10 -72 6 -113 -13
-127 -13 -10 -13 -21 2 -98 10 -48 22 -87 27 -87 5 0 6 30 4 68 -3 37 -3 58 0
47 3 -11 15 -41 27 -67 l22 -48 81 0 82 0 7 113 c4 62 6 151 6 197 -1 148 4
345 9 355 3 6 5 28 5 50 0 29 -4 40 -15 40 -8 0 -18 4 -21 8 -3 4 -12 1 -19
-8z"/>
<path d="M2700 734 c0 -3 5 -14 10 -25 12 -21 19 -159 29 -569 l1 -35 13 25
c8 15 16 46 20 70 3 25 14 61 24 80 11 23 17 55 17 90 -1 30 -2 91 -4 134 -1
46 -7 91 -16 107 -8 16 -14 36 -14 47 0 10 -15 32 -33 50 -31 30 -47 39 -47
26z"/>
<path d="M324 678 c-48 -52 -87 -108 -127 -180 -43 -77 -47 -95 -11 -53 l26
30 -5 -38 c-4 -21 0 -51 8 -70 12 -28 12 -37 0 -58 -8 -13 -19 -35 -25 -49 -5
-14 -15 -33 -20 -42 -6 -10 -10 -25 -10 -33 0 -9 -5 -13 -10 -10 -6 4 -8 11
-4 16 3 6 3 17 -1 27 -5 14 -7 14 -16 2 -11 -15 -7 43 6 107 10 46 -53 -103
-76 -181 -12 -39 -26 -75 -30 -80 -17 -18 -9 -36 15 -36 20 0 24 6 29 41 7 53
27 76 27 32 0 -18 -4 -35 -10 -38 -17 -11 -11 -35 10 -35 13 0 18 5 14 14 -3
8 -1 23 5 33 9 16 10 14 11 -12 l0 -30 19 36 c11 20 23 54 26 75 8 43 30 84
45 84 5 0 16 -13 24 -28 14 -26 13 -31 -7 -63 -12 -19 -29 -34 -37 -34 -10 0
-16 -12 -18 -38 l-3 -37 60 0 c71 0 71 -1 41 108 -11 39 -20 89 -20 109 -1 21
-7 55 -14 76 -8 21 -12 55 -9 76 3 23 1 41 -6 45 -8 5 -7 16 4 36 8 16 15 38
15 48 0 11 7 25 15 32 12 10 16 8 24 -11 9 -21 10 -19 10 18 1 28 11 59 31 93
16 27 28 50 27 50 -2 0 -17 -15 -33 -32z"/>
<path d="M2402 694 c-6 -12 -7 -36 -2 -65 5 -25 11 -105 14 -178 5 -130 13
-161 41 -161 23 0 24 26 4 136 -11 60 -21 138 -23 174 -3 36 -9 76 -14 90 -9
23 -9 24 -20 4z"/>
<path d="M2245 650 c-8 -13 4 -91 16 -106 5 -6 8 -26 8 -45 -1 -19 4 -72 11
-118 10 -66 16 -85 31 -88 17 -5 17 -8 4 -40 -17 -40 -5 -76 23 -71 21 4 28
53 12 73 -6 8 -10 29 -9 47 6 58 -12 172 -31 206 -11 17 -15 32 -9 32 12 0 1
89 -13 108 -13 15 -34 16 -43 2z"/>
<path d="M2840 536 c0 -13 4 -36 10 -50 6 -17 5 -61 -2 -131 -9 -77 -9 -116
-1 -146 9 -36 8 -44 -8 -60 -11 -11 -19 -33 -19 -53 0 -19 -4 -38 -10 -41 -15
-9 -12 -25 5 -25 9 0 20 12 26 28 l10 27 21 -27 c14 -21 28 -28 52 -28 l33 0
-12 43 c-7 23 -18 61 -24 85 -13 48 -31 56 -31 14 0 -15 -4 -32 -9 -38 -5 -5
-11 -18 -14 -29 -3 -11 -5 -2 -6 20 0 22 6 50 14 63 20 28 19 279 0 328 -17
42 -35 52 -35 20z"/>
<path d="M2920 281 c0 -31 5 -53 15 -61 8 -7 19 -29 25 -49 5 -20 16 -45 24
-56 15 -20 15 -20 16 0 0 16 3 15 15 -9 8 -15 15 -36 15 -45 0 -13 2 -14 9 -2
8 12 13 11 29 -9 21 -26 42 -20 42 12 0 23 -60 138 -72 138 -5 0 -8 -8 -8 -17
-1 -16 -2 -15 -12 2 -6 11 -17 24 -25 28 -7 4 -13 15 -13 24 0 19 -41 93 -52
93 -4 0 -8 -22 -8 -49z"/>
</g>
</svg>
