<?xml version="1.0" standalone="no"?>
<!DOCTYPE svg PUBLIC "-//W3C//DTD SVG 20010904//EN"
 "http://www.w3.org/TR/2001/REC-SVG-20010904/DTD/svg10.dtd">
<svg version="1.0" xmlns="http://www.w3.org/2000/svg"
 width="300.000000pt" height="300.000000pt" viewBox="0 0 300.000000 300.000000"
 preserveAspectRatio="xMidYMid meet">
<metadata>
Created by potrace 1.16, written by Peter Selinger 2001-2019
</metadata>
<g transform="translate(0.000000,300.000000) scale(0.100000,-0.100000)"
fill="#000000" stroke="none">
<path d="M1548 2967 c-57 -38 -103 -49 -171 -42 -60 6 -64 5 -122 -32 -33 -22
-66 -47 -74 -56 -7 -9 -19 -17 -25 -17 -21 0 -84 -73 -135 -157 -94 -155 -167
-334 -180 -443 -11 -87 4 -261 29 -342 11 -36 23 -110 26 -164 3 -55 10 -107
15 -116 5 -9 9 -46 9 -83 0 -44 4 -64 11 -60 7 5 8 -5 4 -29 -5 -25 -4 -36 4
-36 7 0 10 -4 7 -8 -2 -4 0 -59 5 -122 10 -120 36 -238 67 -312 29 -67 35
-113 19 -145 -25 -48 -29 -105 -13 -179 14 -63 33 -202 36 -264 1 -28 5 -127
10 -267 l4 -93 38 0 c36 0 38 2 38 30 0 17 3 30 8 30 15 0 30 -16 33 -35 3
-12 14 -21 28 -23 l23 -4 -22 30 c-13 17 -24 47 -25 66 -1 21 -9 42 -19 49
-16 12 -15 15 10 42 l27 30 -6 -27 c-6 -23 -4 -25 14 -21 20 6 21 3 17 -28 -4
-22 2 -50 18 -84 21 -44 24 -47 24 -22 0 37 24 31 28 -6 3 -24 7 -27 44 -27
l41 0 -44 45 c-24 25 -49 45 -55 45 -6 0 -11 18 -12 41 -1 22 -4 45 -7 49 -3
5 4 11 15 15 14 4 20 15 20 35 0 22 7 33 28 43 33 15 81 11 89 -9 4 -11 9 -11
26 -2 28 14 92 15 92 0 0 -22 16 -25 22 -4 7 28 43 30 43 2 0 -11 3 -20 8 -20
4 0 12 -10 17 -22 7 -17 17 -22 37 -20 19 2 28 -2 33 -18 9 -29 19 -18 35 39
10 37 19 51 31 51 10 0 25 10 33 22 9 12 19 19 22 15 4 -4 0 -15 -9 -25 -9
-10 -29 -42 -44 -72 -16 -30 -40 -73 -54 -95 -14 -22 -28 -48 -32 -58 -5 -13
-13 -16 -27 -12 -24 8 -60 -11 -60 -30 0 -18 45 -21 56 -4 4 8 9 8 17 0 16
-16 35 -13 40 7 4 16 5 16 6 0 1 -12 9 -18 26 -18 23 0 25 3 24 49 -1 31 5 58
15 72 9 13 17 33 17 44 1 11 6 2 11 -20 12 -53 12 -63 3 -107 l-7 -38 130 0
129 0 -7 40 c-10 53 -16 58 -24 18 l-6 -32 -21 21 c-23 23 -65 108 -48 97 7
-4 10 22 10 73 -1 189 7 492 13 519 5 22 0 43 -19 77 -30 58 -31 82 -4 178 25
91 59 263 59 305 0 17 14 73 30 123 22 67 29 103 25 129 -5 28 -4 33 4 22 9
-13 11 -12 12 5 10 167 19 232 43 310 36 120 43 226 22 335 -10 47 -22 99 -27
115 -6 17 -17 53 -24 80 -16 57 -84 203 -120 255 -81 117 -96 135 -147 174
-21 16 -38 34 -38 42 0 30 -102 88 -172 97 -38 5 -52 2 -80 -16z m107 -730 c0
-9 6 -22 13 -29 15 -15 15 -33 1 -56 -7 -12 -6 -28 5 -57 8 -22 15 -32 15 -22
1 10 6 15 11 12 6 -4 8 -15 5 -26 -5 -14 0 -20 19 -25 31 -7 38 -27 48 -129 3
-26 -1 -30 -24 -33 -16 -2 -28 -8 -28 -13 0 -5 -10 -9 -22 -9 -56 0 -98 -21
-125 -61 -30 -46 -68 -69 -113 -69 -24 0 -35 7 -51 34 -36 61 -98 103 -162
111 -32 4 -60 11 -63 16 -3 5 -16 6 -30 3 -13 -3 -24 -2 -24 2 0 25 35 94 50
99 14 4 17 14 13 48 -5 40 -2 45 42 89 60 60 130 96 156 80 16 -10 21 -9 31 8
20 31 23 24 19 -37 l-3 -58 50 49 c63 62 82 73 93 55 8 -13 13 -6 10 14 0 4 8
7 19 7 11 0 20 5 20 11 0 6 6 9 13 6 6 -2 12 -11 12 -20z m-167 -614 c5 -10
12 -35 16 -55 6 -32 4 -37 -16 -44 -13 -4 -26 -7 -30 -6 -5 1 -8 -2 -8 -7 0
-5 12 -11 26 -13 18 -2 32 -14 44 -35 23 -43 41 -64 50 -58 9 6 33 -45 25 -53
-3 -4 -21 -5 -40 -3 -18 1 -42 -2 -53 -8 -15 -8 -32 -6 -65 5 -35 12 -51 13
-66 4 -19 -9 -21 -8 -21 13 0 13 14 41 30 62 18 22 28 45 25 55 -3 9 6 48 20
86 14 38 25 70 25 71 0 11 31 -1 38 -14z m-152 -28 c-3 -9 0 -15 9 -15 21 0
27 -17 20 -50 -10 -44 -50 -61 -144 -61 -90 0 -131 14 -131 46 0 18 5 21 29
17 20 -3 35 2 49 16 11 11 40 22 68 26 27 4 58 13 68 21 25 19 40 19 32 0z
m260 -44 c7 -8 34 21 28 30 -7 13 3 11 34 -5 15 -7 51 -17 81 -21 33 -4 61
-15 74 -28 19 -19 20 -19 34 -2 12 18 13 18 13 -1 0 -46 -19 -55 -131 -61
l-106 -6 -26 29 c-20 21 -27 39 -27 69 1 35 2 37 12 20 6 -11 12 -22 14 -24z
m-471 -117 c45 -6 170 1 209 13 16 4 18 2 12 -18 -4 -13 -10 -49 -13 -80 -5
-53 -4 -57 24 -77 32 -22 43 -20 43 9 0 22 28 33 46 18 9 -7 24 -8 41 -3 26 7
54 6 61 -1 2 -2 -4 -17 -12 -33 -14 -27 -14 -34 -1 -59 8 -15 15 -22 15 -15 0
6 7 12 15 12 8 0 15 9 15 20 0 12 10 34 21 50 18 23 21 38 16 77 -3 26 -8 57
-12 69 -6 20 -4 21 120 20 120 -1 128 0 145 22 24 29 30 28 30 -7 0 -20 -8
-34 -25 -45 -22 -14 -25 -24 -25 -71 0 -30 -4 -55 -10 -55 -5 0 -10 -8 -10
-18 0 -10 -11 -33 -25 -52 -14 -19 -25 -44 -25 -57 0 -28 -10 -29 -33 -3 -25
30 -36 24 -30 -14 4 -27 1 -36 -18 -49 -19 -14 -25 -14 -38 -3 -9 7 -32 19
-51 26 -19 7 -43 20 -52 28 -10 9 -42 16 -75 17 -48 1 -66 -3 -106 -27 -26
-15 -53 -28 -61 -28 -7 0 -19 -6 -25 -14 -6 -8 -21 -16 -31 -19 -25 -6 -45 24
-28 41 8 8 7 13 -7 18 -11 5 -22 1 -30 -9 -7 -9 -15 -14 -18 -10 -4 3 -7 -4
-7 -16 0 -13 -4 -20 -11 -15 -6 3 -8 17 -5 30 5 20 3 24 -18 24 -31 0 -42 16
-24 37 10 13 10 17 1 20 -7 3 -13 16 -13 30 0 16 -7 27 -19 30 -16 4 -18 11
-14 37 3 22 0 38 -12 49 -12 13 -16 32 -14 82 2 64 3 65 20 46 10 -11 39 -23
64 -27z m403 -521 c23 -3 42 -10 42 -16 0 -5 6 -15 14 -21 8 -6 17 -26 21 -44
5 -26 3 -33 -12 -39 -10 -3 -21 -12 -25 -18 -6 -9 -21 -10 -54 -4 -29 6 -51 5
-58 -1 -14 -11 -57 -9 -50 2 3 4 -4 8 -15 8 -12 0 -21 4 -21 9 0 5 -9 12 -19
16 -21 6 -35 42 -20 51 5 3 9 14 9 24 0 10 5 22 12 26 22 14 73 23 103 18 17
-3 49 -7 73 -11z"/>
<path d="M967 655 c-9 -8 -19 -15 -24 -15 -4 0 -43 -24 -86 -52 -67 -45 -82
-61 -103 -107 -22 -47 -23 -56 -11 -75 10 -15 12 -28 5 -46 -5 -14 -7 -34 -4
-44 3 -11 0 -26 -5 -32 -7 -9 -7 -19 -1 -30 7 -13 6 -22 -5 -32 -10 -10 -12
-26 -7 -58 4 -26 2 -49 -4 -57 -6 -6 -12 -32 -14 -57 -3 -42 -1 -45 24 -48 32
-4 39 13 38 95 0 32 2 94 6 138 3 44 5 101 5 126 0 34 5 52 21 69 l22 23 9
-27 c11 -33 31 -29 35 7 2 15 9 27 16 27 16 0 19 -86 4 -117 -8 -16 -8 -26 0
-36 9 -10 9 -16 0 -25 -6 -6 -12 -40 -12 -76 -1 -35 -4 -68 -8 -72 -5 -4 -8
-26 -8 -48 0 -78 18 -106 45 -70 11 15 14 15 43 0 17 -9 40 -16 52 -16 18 0
19 3 10 20 -7 14 -7 20 0 20 17 0 11 56 -9 74 -22 20 -33 9 -31 -32 3 -42 1
-45 -15 -32 -12 10 -14 24 -9 60 4 30 2 50 -5 54 -7 5 -11 -6 -11 -34 0 -25
-4 -39 -10 -35 -15 9 -12 72 5 89 18 18 19 38 3 54 -8 8 -8 15 2 27 11 13 11
20 -1 41 -9 19 -10 30 -2 43 12 20 16 161 4 161 -5 0 -4 15 3 33 19 56 29 36
32 -66 1 -54 7 -104 12 -110 6 -7 8 -45 7 -85 -3 -53 0 -72 8 -69 9 3 11 42 9
138 -2 74 -5 173 -6 221 -1 48 -5 90 -8 93 -3 3 -13 -1 -21 -10z"/>
<path d="M658 474 c-32 -25 -58 -51 -58 -57 0 -6 -7 -19 -17 -29 -10 -11 -12
-18 -4 -18 7 0 9 -9 6 -22 -9 -38 -17 -130 -16 -180 0 -26 -4 -50 -9 -53 -6
-3 -10 -31 -10 -61 l0 -54 44 0 c25 0 48 4 51 10 3 5 8 44 11 87 6 102 10 143
19 231 6 56 5 72 -5 72 -7 0 -1 9 14 21 14 11 26 30 26 41 0 12 7 30 17 40 33
36 -11 19 -69 -28z"/>
<path d="M2323 463 c-29 -4 -33 -8 -33 -34 0 -16 6 -32 14 -35 8 -3 12 -13 9
-25 -6 -23 22 -27 31 -4 3 8 1 15 -4 15 -6 0 -10 14 -10 30 0 28 2 30 28 24
42 -10 47 -18 50 -80 2 -32 8 -66 14 -77 5 -10 7 -29 4 -40 -3 -12 0 -40 6
-62 5 -22 12 -64 13 -93 5 -84 2 -82 108 -82 l94 0 -3 43 c-5 108 -17 173 -36
193 -10 12 -16 28 -12 37 3 9 -3 29 -14 44 -10 15 -17 33 -15 40 4 12 -152 98
-191 105 -11 3 -36 3 -53 1z"/>
<path d="M480 345 c-8 -9 -35 -27 -61 -40 -25 -13 -49 -31 -53 -41 -4 -10 -12
-14 -23 -10 -9 4 -20 1 -25 -6 -13 -21 -9 -29 10 -19 15 8 17 4 14 -32 -1 -23
-4 -77 -5 -119 l-2 -78 92 0 c79 0 92 2 97 18 3 9 3 65 1 124 -2 59 -1 110 3
112 4 2 7 24 7 48 0 32 -4 43 -15 43 -8 0 -18 4 -21 8 -3 4 -12 1 -19 -8z"/>
<path d="M2640 294 c0 -3 5 -14 11 -26 10 -19 13 -56 17 -205 l2 -63 38 0 38
0 2 71 c1 46 -4 82 -13 100 -8 15 -15 36 -15 47 0 10 -15 32 -33 50 -31 30
-47 39 -47 26z"/>
</g>
</svg>
